<?xml version="1.0" encoding="UTF-8" standalone="no"?>
<!-- Created with Inkscape (http://www.inkscape.org/) -->

<svg
   xmlns:dc="http://purl.org/dc/elements/1.1/"
   xmlns:cc="http://creativecommons.org/ns#"
   xmlns:rdf="http://www.w3.org/1999/02/22-rdf-syntax-ns#"
   xmlns:svg="http://www.w3.org/2000/svg"
   xmlns="http://www.w3.org/2000/svg"
   xmlns:sodipodi="http://sodipodi.sourceforge.net/DTD/sodipodi-0.dtd"
   xmlns:inkscape="http://www.inkscape.org/namespaces/inkscape"
   id="svg3004"
   version="1.1"
   inkscape:version="0.48.5 r10040"
   width="295.3"
   height="108.0625"
   xml:space="preserve"
   sodipodi:docname="logoUR1.svg"><metadata
     id="metadata3010"><rdf:RDF><cc:Work
         rdf:about=""><dc:format>image/svg+xml</dc:format><dc:type
           rdf:resource="http://purl.org/dc/dcmitype/StillImage" /><dc:title></dc:title></cc:Work></rdf:RDF></metadata><defs
     id="defs3008" /><sodipodi:namedview
     pagecolor="#ffffff"
     bordercolor="#666666"
     borderopacity="1"
     objecttolerance="10"
     gridtolerance="10"
     guidetolerance="10"
     inkscape:pageopacity="0"
     inkscape:pageshadow="2"
     inkscape:window-width="956"
     inkscape:window-height="1060"
     id="namedview3006"
     showgrid="false"
     inkscape:zoom="1.3545547"
     inkscape:cx="25.254658"
     inkscape:cy="140.49676"
     inkscape:window-x="960"
     inkscape:window-y="18"
     inkscape:window-maximized="0"
     inkscape:current-layer="g3012" /><g
     id="g3012"
     inkscape:groupmode="layer"
     inkscape:label="ink_ext_XXXXXX"
     transform="matrix(1.25,0,0,-1.25,0,108.0625)"><path
       inkscape:connector-curvature="0"
       id="path3016"
       style="fill:#ffffff;fill-opacity:1;fill-rule:nonzero;stroke:none;opacity:0.6"
       d="m 0,54.1578 1.8457,0 0,-9.2695 c 0,-3.1695 0.96328,-3.9723 2.7086,-3.9723 1.74531,0 2.70898,0.8028 2.70898,3.9723 l 0,9.2695 1.8457,0 0,-9.189 c 0,-4.0126 -1.48515,-5.5977 -4.55468,-5.5977 C 1.48477,39.3711 0,40.9562 0,44.9688 l 0,9.189" /><path
       inkscape:connector-curvature="0"
       id="path3018"
       style="fill:#ffffff;fill-opacity:1;fill-rule:nonzero;stroke:none;opacity:0.6"
       d="m 24.7578,54.1578 0,-14.4859 -2.5273,0 -5.7184,12.5597 -0.0398,0 0,-12.5597 -1.6457,0 0,14.4859 2.6086,0 5.6378,-12.4 0.0403,0 0,12.4 1.6445,0" /><path
       inkscape:connector-curvature="0"
       id="path3020"
       style="fill:#ffffff;fill-opacity:1;fill-rule:nonzero;stroke:none;opacity:0.6"
       d="m 30.7566,39.6719 1.8457,0 0,14.4859 -1.8457,0 0,-14.4859 z" /><path
       inkscape:connector-curvature="0"
       id="path3022"
       style="fill:#ffffff;fill-opacity:1;fill-rule:nonzero;stroke:none;opacity:0.6"
       d="m 43.5383,39.6719 -2.2071,0 -4.1933,14.4859 2.0059,0 3.3105,-12.7398 0.0398,0 3.3907,12.7398 1.8867,0 -4.2332,-14.4859" /><path
       inkscape:connector-curvature="0"
       id="path3024"
       style="fill:#ffffff;fill-opacity:1;fill-rule:nonzero;stroke:none;opacity:0.6"
       d="m 52.0645,39.6719 0,14.4859 7.4636,0 0,-1.6051 -5.6179,0 0,-4.6547 5.2168,0 0,-1.605 -5.2168,0 0,-5.0157 5.7382,0 0,-1.6054 -7.5839,0" /><path
       inkscape:connector-curvature="0"
       id="path3026"
       style="fill:#ffffff;fill-opacity:1;fill-rule:nonzero;stroke:none;opacity:0.6"
       d="m 66.3098,47.9379 2.7695,0 c 1.323,0 1.9656,1.1437 1.9656,2.4078 0,1.043 -0.5215,2.207 -1.9465,2.207 l -2.7886,0 0,-4.6148 z m 0,-1.6051 0,-6.6609 -1.8457,0 0,14.4859 4.9961,0 c 2.5679,0 3.4707,-1.8058 3.4707,-3.6113 0,-1.7059 -0.9426,-3.0098 -2.6489,-3.3106 l 0,-0.0402 c 1.6653,-0.2605 2.2676,-0.8227 2.3672,-3.7316 0.0207,-0.6223 0.2207,-2.8899 0.5024,-3.7922 l -1.9258,0 c -0.5215,1.0027 -0.4016,2.8886 -0.5617,4.8152 -0.1407,1.7652 -1.5657,1.8457 -2.1875,1.8457 l -2.1668,0" /><path
       inkscape:connector-curvature="0"
       id="path3028"
       style="fill:#ffffff;fill-opacity:1;fill-rule:nonzero;stroke:none;opacity:0.6"
       d="m 79.491,43.9855 0,-0.421 c 0,-1.9668 1.2445,-2.5879 2.4278,-2.5879 1.4652,0 2.589,0.6211 2.589,2.3468 0,3.2102 -6.5012,2.8489 -6.5012,7.2032 0,2.5675 1.8262,3.932 4.2539,3.932 2.6489,0 4.1333,-1.2844 4.0129,-4.2336 l -1.9265,0 c 0.0203,1.5852 -0.4817,2.6285 -2.227,2.6285 -1.1031,0 -2.2273,-0.5613 -2.2273,-2.1265 0,-3.1903 6.5012,-2.729 6.5012,-7.3227 0,-3.0508 -2.1067,-4.0332 -4.4946,-4.0332 -4.273,-0.0399 -4.273,3.2305 -4.2332,4.6144 l 1.825,0" /><path
       inkscape:connector-curvature="0"
       id="path3030"
       style="fill:#ffffff;fill-opacity:1;fill-rule:nonzero;stroke:none;opacity:0.6"
       d="m 91.8711,39.6719 1.8457,0 0,14.4859 -1.8457,0 0,-14.4859 z" /><path
       inkscape:connector-curvature="0"
       id="path3032"
       style="fill:#ffffff;fill-opacity:1;fill-rule:nonzero;stroke:none;opacity:0.6"
       d="m 107.741,54.1578 0,-1.6051 -3.812,0 0,-12.8808 -1.846,0 0,12.8808 -3.8115,0 0,1.6051 9.4695,0" /><path
       inkscape:connector-curvature="0"
       id="path3034"
       style="fill:#ffffff;fill-opacity:1;fill-rule:nonzero;stroke:none;opacity:0.6"
       d="m 117.833,58.5113 -2.628,-2.8289 -1.345,0 1.786,2.8289 2.187,0 z m -5.778,-18.8394 0,14.4859 7.464,0 0,-1.6051 -5.619,0 0,-4.6547 5.217,0 0,-1.605 -5.217,0 0,-5.0157 5.739,0 0,-1.6054 -7.584,0" /><path
       inkscape:connector-curvature="0"
       id="path3036"
       style="fill:#ffffff;fill-opacity:1;fill-rule:nonzero;stroke:none;opacity:0.6"
       d="m 133.242,41.2773 1.745,0 c 2.569,0 3.511,0.9629 3.511,4.3336 l 0,2.9293 c 0,2.9289 -0.902,4.0125 -2.829,4.0125 l -2.427,0 0,-11.2754 z m -1.846,12.8805 4.454,0 c 1.846,0 3.17,-0.6621 3.892,-2.207 0.582,-1.2238 0.643,-4.1129 0.643,-4.5746 0,-3.0895 -0.281,-4.875 -0.883,-5.8391 -0.783,-1.243 -2.247,-1.8652 -4.775,-1.8652 l -3.331,0 0,14.4859" /><path
       inkscape:connector-curvature="0"
       id="path3038"
       style="fill:#ffffff;fill-opacity:1;fill-rule:nonzero;stroke:none;opacity:0.6"
       d="m 146.022,39.6719 0,14.4859 7.463,0 0,-1.6051 -5.617,0 0,-4.6547 5.216,0 0,-1.605 -5.216,0 0,-5.0157 5.738,0 0,-1.6054 -7.584,0" /><path
       inkscape:connector-curvature="0"
       id="path3040"
       style="fill:#ffffff;fill-opacity:1;fill-rule:nonzero;stroke:none;opacity:0.6"
       d="m 35.1824,19.2078 3.0781,0 c 5.1333,0 6.6,2.6399 6.5508,5.425 -0.0484,3.1281 -1.9058,5.0344 -6.5508,5.0344 l -3.0781,0 0,-10.4594 z m 3.6172,14.5649 c 6.7442,0 10.9477,-3.5676 10.9477,-9.3352 0,-3.8613 -2.0039,-6.7441 -5.5727,-8.1621 3.0316,-2.0039 4.8867,-5.084 7.4301,-9.23829 1.418,-2.29688 2.2476,-3.41992 4.5445,-6.597657 l -5.7183,0 L 46.032,7.28203 C 41.634,14.125 39.6301,14.9062 37.1863,14.9062 l -2.0039,0 0,-14.466747 -4.7886,0 0,33.333247 8.4058,0" /><path
       inkscape:connector-curvature="0"
       id="path3042"
       style="fill:#ffffff;fill-opacity:1;fill-rule:nonzero;stroke:none;opacity:0.6"
       d="m 78.7297,29.4719 -14.125,0 0,-10.0688 13.6363,0 0,-4.3015 -13.6363,0 0,-10.36137 14.5641,0 0,-4.300777 -19.3551,0 0,33.333247 18.916,0 0,-4.3008" /><path
       inkscape:connector-curvature="0"
       id="path3044"
       style="fill:#ffffff;fill-opacity:1;fill-rule:nonzero;stroke:none;opacity:0.6"
       d="m 115.093,0.439453 -4.106,0 -22.2866,25.660147 0,-25.660147 -4.4961,0 0,33.333247 3.8102,0 22.5825,-25.8059 0,25.8059 4.496,0 0,-33.333247" /><path
       inkscape:connector-curvature="0"
       id="path3046"
       style="fill:#ffffff;fill-opacity:1;fill-rule:nonzero;stroke:none;opacity:0.6"
       d="m 153.263,0.439453 -4.106,0 -22.287,25.660147 0,-25.660147 -4.496,0 0,33.333247 3.813,0 22.58,-25.8059 0,25.8059 4.496,0 0,-33.333247" /><path
       inkscape:connector-curvature="0"
       id="path3048"
       style="fill:#ffffff;fill-opacity:1;fill-rule:nonzero;stroke:none;opacity:0.6"
       d="m 179.509,29.4719 -14.125,0 0,-10.0688 13.637,0 0,-4.3015 -13.637,0 0,-10.36137 14.564,0 0,-4.300777 -19.353,0 0,33.333247 18.914,0 0,-4.3008" /><path
       inkscape:connector-curvature="0"
       id="path3050"
       style="fill:#ffffff;fill-opacity:1;fill-rule:nonzero;stroke:none;opacity:0.6"
       d="m 200.866,26.4414 c -2.834,2.6875 -5.57,3.4707 -7.818,3.4707 -3.08,0 -5.279,-1.6133 -5.279,-3.959 0,-6.4035 14.418,-6.3054 14.418,-16.91091 C 202.187,3.8125 198.228,0 192.853,0 c -3.618,0 -6.551,0.977734 -9.336,3.0793 l 0,6.06054 c 2.443,-3.12812 5.523,-4.83906 8.796,-4.83906 3.715,0 5.426,2.3457 5.426,4.20313 0,6.89139 -14.418,7.67379 -14.418,16.81249 0,5.4258 4.008,8.8965 10.117,8.8965 2.541,0 5.084,-0.7832 7.428,-2.3469 l 0,-5.4246" /><path
       inkscape:connector-curvature="0"
       id="path3052"
       style="fill:#ffffff;fill-opacity:1;fill-rule:nonzero;stroke:none;opacity:0.6"
       d="m 236.241,38.032 -0.025,0.0168 0,1.2239 -2.072,0 -0.223,-0.6868 c -1.572,-2.0488 -6.859,-8.2519 -15.399,-11.4414 l 0.696,-2.0879 c 2.644,1.0313 4.914,2.2129 6.879,3.4297 l 0,-27.332 10.119,0 0,36.8367 c 0.006,0.011 0.023,0.0356 0.025,0.041" /><path
       inkscape:connector-curvature="0"
       id="path3054"
       style="fill:#ffffff;fill-opacity:1;fill-rule:nonzero;stroke:none"
       d="m 185.468,48.9273 0.103,-0.0097 0.002,0.007 -0.094,0.0242 -0.011,-0.0215 z m -0.057,0.1782 c -0.012,0.2308 -0.182,0.2343 -0.344,0.2336 l -0.015,-0.1477 c 0.08,-0.0242 0.127,0.0371 0.094,0.1227 0.06,-0.2211 0.179,-0.3145 0.333,-0.3653 0.032,0.068 0.081,0.1387 0.061,0.1918 -0.043,-0.0117 -0.129,-0.0351 -0.129,-0.0351 z m -1.039,0.7554 c 0.02,-0.0464 0.065,-4e-4 0.113,0.034 l -0.148,0.0957 0.035,-0.1297 z m -0.752,-0.7265 c -0.037,-0.0149 0.082,0.2332 0.008,0.2039 -0.147,0.0019 -0.309,-0.0938 -0.422,-0.0512 -0.076,-0.0398 -0.049,0.2719 -0.125,0.2324 -0.158,-0.0293 -0.596,-0.273 -0.404,-0.3187 0.289,-0.0563 0.502,-0.0383 0.769,-0.0856 l 0.715,4e-4 0.149,-0.1097 -0.161,0.2289 c -0.07,0.1242 -0.347,-0.127 -0.529,-0.1004 z m 0.516,0.9547 0.002,0 -0.096,0.0089 0.045,-0.1121 0.049,0.1032 z m 0.037,0.0097 -0.035,-0.0097 0.06,-0.0079 -0.025,0.0176 z m 2.627,4.3313 c -0.188,0.0644 -0.307,0.2734 -0.278,0.5879 0.323,0.0054 0.34,-0.2742 0.278,-0.5879 z m -6.373,-3.5672 c -0.092,-0.0344 -0.198,0.0332 -0.272,0.1816 0.125,0.0965 0.209,-0.0312 0.272,-0.1816 z m 9.73,-1.6734 c -0.215,0.2382 -0.308,0.539 -0.248,0.9777 -0.012,-0.1805 -0.142,-0.2449 -0.263,-0.1305 l 0.142,0.2469 c 0.293,-0.1434 0.572,-0.309 0.391,-0.7441 0,0 0.162,-0.0418 0.242,-0.0633 -0.014,-0.1153 -0.154,-0.1973 -0.264,-0.2867 l 0.133,-0.1387 c 0.152,0.2457 0.215,0.7855 0.215,0.7867 -0.447,0.6855 -0.906,1.3051 -1.303,1.95 -0.117,-0.0172 -0.234,-0.0586 -0.236,0.0379 l 0.029,0.2508 -0.191,0.2695 -0.106,0.0641 -0.004,-4e-4 c -0.086,0.009 -0.136,-0.0559 -0.17,-0.1336 l -0.002,0.2293 -0.043,0.0461 c 0.01,-0.0051 0.018,-0.011 0.028,-0.016 0.004,-0.011 0.014,-0.0196 0.015,-0.0301 l 0.137,-0.0739 0.004,-0.0035 0,8e-4 0.035,-0.0187 0.071,-0.0121 -0.432,0.6261 -0.133,0.0922 c -0.166,0.0965 -0.346,0.1742 -0.24,0.427 l -0.084,0.1074 -0.016,-0.0496 0,0.0687 -0.353,0.4575 c -0.239,0.2925 -0.453,0.6187 -0.729,0.8972 -1.656,1.9332 -3.633,3.2824 -6.185,4.4153 -1.407,0.5703 -2.916,1.1273 -4.787,0.9164 -3.942,-1.0102 -5.407,-4.2989 -5.649,-8.6516 -0.031,-1.534 1.291,-3.2898 2.285,-4.2352 -0.082,-0.3421 -0.166,-0.664 -0.281,-0.9277 -0.221,-0.5734 0.068,-1.8672 0.887,-2.7531 1.851,-0.8 1.369,1.0492 1.476,0.9672 0.403,0.9199 -0.021,0.655 0.356,1.4769 -0.238,-0.5152 -0.725,0.225 -0.041,0.7367 1.006,0.845 0.275,1.3645 0.734,1.4407 0.137,0.014 0.18,0.1144 0.274,0.1988 0.853,0.0551 1.746,0.8019 3.07,0.6496 0.332,-0.0109 0.642,0.275 0.953,0.3699 0.221,0.0086 0.432,-0.1648 0.604,-0.1933 0.273,-0.0446 0.525,0.0117 0.779,0.0918 -0.266,-0.0071 -0.465,-0.0489 -0.752,-0.0422 -0.192,0.0156 0.185,0.3269 0.33,0.3812 0.068,0.0508 0.096,-0.2636 0.162,-0.2117 0.117,-0.0191 0.25,0.0832 0.399,0.1383 0.068,0.0508 0,-0.2168 0.033,-0.191 0.189,0.0437 0.404,0.316 0.496,0.2129 l 0.193,-0.1981 0.135,-0.0629 0.113,0.0352 0.877,0.1558 0.004,0.0247 c -0.154,0.0222 -0.285,0.0921 -0.383,0.3015 0.045,-0.0797 0.012,-0.1488 -0.068,-0.1391 l -0.014,0.1489 c 0.156,0.0297 0.319,0.0578 0.371,-0.1699 0,0 0.078,0.0402 0.118,0.0589 0.029,-0.0492 -0.004,-0.1289 -0.024,-0.2003 l 0.096,-0.0086 c -0.01,0.1464 -0.143,0.3769 -0.145,0.3777 l -1.07,0.3887 c -0.041,-0.0426 -0.076,-0.0965 -0.104,-0.0539 l -0.056,0.1226 -0.149,0.0629 -0.06,-0.0113 -0.002,-0.0016 -0.031,-0.1101 -0.065,0.0898 0.076,0.0176 0.002,0 0.02,0.0043 0.031,0.0195 -0.353,0.0996 -0.081,-0.009 c -0.095,-0.0211 -0.187,-0.0425 -0.216,0.0977 l -0.063,0.0191 0.006,-0.0261 -0.018,0.0293 -0.269,0.082 -0.539,0.1625 c -1.201,0.2984 -2.354,0.2824 -3.676,0.1269 -0.371,-0.0339 -0.744,-0.1039 -1.125,-0.1976 -0.125,0.2836 -0.215,0.6316 -0.123,1.2281 -0.061,-1.1555 -1.564,0.1637 -0.346,1.1469 1.69,0.6488 0.68,1.6273 1.774,2.1285 0.127,0.0352 0.254,0.0477 0.392,0.1336 0.899,-0.3461 3.368,-0.2504 5.395,-1.9246 0.555,-0.384 1.332,-0.3848 1.959,-0.6063 0.404,-0.2164 0.576,-0.7297 0.82,-0.9949 0.397,-0.4039 0.887,-0.6113 1.354,-0.8406 -0.405,0.3582 -0.795,0.5199 -1.258,0.8859 -0.297,0.259 0.662,0.2781 0.961,0.1824 0.166,-0.0039 -0.129,-0.5242 0.035,-0.5242 0.168,-0.1785 0.48,-0.2043 0.768,-0.3129 0.162,-0.0125 -0.243,-0.3386 -0.161,-0.3449 0.319,-0.1976 1.022,0.0024 1.067,-0.2691 l 0.105,-0.5469 0.151,-0.2645 0.222,-0.0867 c 0.539,-0.2121 1.096,-0.5285 1.551,-0.882 l 0.035,0.0309 z m 1.764,-0.6403 0.09,-0.0875 -0.026,0.0602 -0.064,0.0273 z m -0.195,-0.0941 c 0.05,0.0707 0.113,0.1254 0.193,0.0957 l 0.002,-0.0016 -0.145,0.1371 -0.05,-0.2312 z m -0.131,0.4976 0.181,-0.2664 c -0.007,0.1004 -0.066,0.1899 -0.181,0.2664 z m 0.455,-1.0519 c -0.018,-0.0965 0.103,-0.082 0.222,-0.0906 l -0.136,0.3375 -0.086,-0.2469 z m -2.006,-0.182 c -0.076,0.023 0.389,0.2617 0.225,0.305 -0.27,0.1657 -0.592,0.2457 -0.723,0.4606 -0.158,0.0371 0.238,0.4945 0.078,0.5344 -0.26,0.1707 -1.219,0.3503 -0.967,0.0343 0.371,-0.4711 0.696,-0.7347 1.061,-1.1543 0.418,-0.2726 0.799,-0.5605 1.183,-0.891 0.08,-0.1062 0.098,-0.234 0.121,-0.3586 l -0.011,0.5582 c 0.019,0.2824 -0.703,0.2422 -0.967,0.5114 z m 2.975,-2.4727 c -0.077,0.0391 -0.231,0.1156 -0.231,0.1156 0.252,0.3848 0.006,0.6133 -0.232,0.8289 l -0.196,-0.2164 c 0.088,-0.1426 0.231,-0.1094 0.284,0.0711 -0.172,-0.432 -0.106,-0.7379 0.06,-1.0219 0.125,0.0645 0.281,0.1125 0.315,0.2227 z m -0.215,-0.3965 0.009,0.0102 -0.109,0.1636 -0.041,-0.0218 0.141,-0.152" /><path
       inkscape:connector-curvature="0"
       id="path3056"
       style="fill:#ffffff;fill-opacity:1;fill-rule:nonzero;stroke:none"
       d="m 220.538,79.8996 -0.002,0.0399 -0.66,0.2617 -0.041,-0.1153 0.703,-0.1863 z m -15.283,2.9438 c 0.443,0.2539 0.764,0.614 1.113,0.9351 -0.402,-0.1203 -0.785,-0.4617 -1.113,-0.9351 z m 1.984,1.6816 -0.179,-0.2168 0.457,0.325 -0.278,-0.1082 z m 0.032,-0.7578 c -0.239,0.116 -0.418,0.2691 -0.219,0.534 l 0.008,0.007 -0.692,-0.5297 c 0.317,0.0617 0.623,0.0527 0.903,-0.0113 z m 8.595,-25.7367 c -0.957,0.2562 -0.931,1.1351 -0.855,2.0383 0.638,-0.2852 0.974,-1.1161 0.855,-2.0383 z M 205.083,75.65 c 0.014,-0.1754 0.035,-0.348 0.059,-0.5207 l -0.493,-0.3684 c -0.453,0.9055 -0.896,2.1336 0.323,2.8563 0.007,-0.0063 -0.258,0.4801 -0.334,0.732 0.203,0.1602 0.449,0.1395 0.699,0.0906 -0.201,-0.7511 -0.287,-1.4757 -0.281,-2.1785 -0.141,-0.291 -0.307,-0.598 -0.518,-0.934 0.174,0.3157 0.385,0.409 0.545,0.3227 z m 13.584,7.457 c -0.227,0.0231 -0.48,0.1473 -0.654,0.3774 0.318,0.0551 0.517,-0.1364 0.654,-0.3774 z m 0.906,-1.5879 c 0.104,0.0106 0.16,-0.1527 0.227,-0.2808 -0.27,-0.0133 -0.561,-0.0297 -0.561,-0.0297 -0.027,0.1102 -0.068,0.2012 -0.105,0.2976 0.164,0.0168 0.33,0.0231 0.439,0.0129 z m 2.729,-19.889 c -1.485,1.5562 -2.496,3.6926 -3.74,4.9043 -1.768,1.7718 -4.493,3.1594 -5.711,3.4945 1.211,-0.791 3.445,-1.9113 5.394,-3.5695 1.385,-1.1821 -2.17,-0.3973 -3.244,0.0574 -0.574,0.0695 -0.197,1.7391 -0.787,1.8184 -0.971,0.7582 -1.781,0.6816 -2.658,0.9257 -0.483,0.0067 0.506,0.9813 0.273,0.975 -0.531,0.3055 -1.519,0.2442 -2.207,0.3618 -0.021,0.1636 -0.031,0.3293 -0.014,0.4925 0.246,1.7618 -1.046,3.3075 -1.226,4.8676 0.347,-0.189 0.613,-0.2008 0.574,0.1242 -0.143,1.109 -0.248,1.7426 0.102,2.4664 0,0.1004 0.011,0.2032 0.031,0.3063 0.533,0.7719 1.213,1.5156 2.049,2.0664 0.379,0.0359 0.73,-0.0856 1.068,-0.1848 -0.234,0.1207 -0.488,0.2481 -0.758,0.3774 0.938,0.5383 2.053,0.8281 3.365,0.6535 0.795,-0.066 1.6,0.1285 2.375,0.0644 0.299,-0.0453 0.583,-0.1683 0.85,-0.3004 0.549,-0.5886 1.127,-1.0425 1.838,-1.33 0.078,0.1988 0.184,0.3968 0.234,0.5929 0.151,-0.0367 0.303,-0.08 0.453,-0.1105 -0.156,0.057 -0.302,0.1086 -0.445,0.1566 0.012,0.0637 0.02,0.1262 0.016,0.1887 0.234,-0.0625 0.492,-0.0641 0.767,-0.1094 0.166,0.0067 -0.007,-0.2941 0.075,-0.2902 0.435,-0.1516 0.964,0.0637 1.179,-0.1645 l 0.469,-0.4472 0.313,-0.2207 0.261,-0.0606 c 0.635,-0.1406 1.326,-0.3972 1.963,-0.6586 l 0.01,0.0309 c -0.344,0.1934 -0.639,0.4355 -0.859,0.843 0.103,-0.1645 0.033,-0.2305 -0.145,-0.1352 l -0.037,0.2262 c 0.351,-0.1031 0.691,-0.234 0.826,-0.6254 0,0 0.168,-0.0211 0.252,-0.032 0.064,-0.1024 -0.002,-0.1879 -0.037,-0.2766 l 0.207,-0.1102 c -0.033,0.2325 -0.336,0.7102 -0.336,0.7102 -0.826,0.5664 -1.625,1.0719 -2.41,1.557 -0.096,-0.0234 -0.178,-0.0672 -0.24,0.0133 l -0.131,0.2129 -0.344,0.2113 -0.137,0.0453 -0.004,-7e-4 c -0.084,0.0019 -0.089,-0.0559 -0.074,-0.1231 l -0.144,0.1899 -0.071,0.0304 c 0.012,-0.0031 0.026,-0.0066 0.037,-0.0094 0.01,-0.0074 0.024,-0.0132 0.034,-0.021 l 0.171,-0.0512 0.006,-0.002 0,4e-4 0.045,-0.0133 0.073,-0.005 -0.805,0.4558 -0.188,0.0578 c -0.218,0.0532 -0.437,0.1063 -0.494,0.3188 l -0.144,0.0804 0.015,-0.0417 -0.043,0.0558 -0.636,0.3004 c -0.42,0.1848 -0.83,0.4164 -1.289,0.5605 -2.815,1.1348 -6.108,1.3829 -9.114,-0.4218 -1.541,-0.9637 -2.904,-2.3278 -3.654,-4.1141 -0.016,-0.043 -0.023,-0.0855 -0.037,-0.1289 -0.799,-0.2781 -1.731,-1.2625 -1.672,-1.3094 -0.447,-3.1019 0.5,-6.016 1.945,-8.425 0.338,-0.039 0.672,0.0141 0.688,-0.3195 -0.063,-0.3141 -0.035,-0.5691 0.029,-0.8016 l 0.746,-0.9918 0.365,-0.2621 0.012,-8e-4 c 0.225,-0.0574 0.334,0.0844 0.399,0.2786 0.013,-0.0231 0.031,-0.045 0.046,-0.068 0.016,-0.2008 0.065,-0.3891 0.17,-0.5586 0.149,-0.0809 0.289,-0.1715 0.426,-0.2699 -0.117,0.0648 -0.242,0.1269 -0.367,0.189 -0.02,0.0274 -0.043,0.0528 -0.059,0.0809 l -0.627,0.3488 -0.224,0.0711 c 0.574,-0.766 1.305,-1.3664 1.961,-2.0703 0.183,-0.1125 0.365,-0.2379 0.513,-0.2922 0.61,-0.2547 1.235,-0.5261 1.116,-1.2914 l 0.34,-0.3297 0.007,0.1516 0.053,-0.2086 1.352,-1.4715 c 0.873,-0.9609 1.668,-2.0078 2.42,-3.0851 2.328,-3.4911 4.123,-7.2293 4.291,-10.77 0.21,-3.6414 -2.09,-5.666 -4.692,-4.5527 -3.201,1.3898 -6.139,5.3699 -8.248,9.1266 -1.738,3.1293 -3.654,6.0336 -5.461,9.0273 l 0.045,-0.0312 c 0,0 -5.537,16.0277 -15.619,17.1586 -1.815,0.2043 -3.465,0.3039 -4.979,0.3164 0.041,0.5961 -0.337,1.0953 -0.669,1.5753 l 0.076,-0.2714 c 0.181,-0.2942 0.24,-0.3133 0.109,-0.0274 0.248,-0.4101 0.342,-0.841 0.418,-1.2762 -4.043,0.0266 -7.057,-0.5937 -9.346,-1.6781 -0.271,0.1196 -0.554,0.216 -0.845,0.2864 -4.036,1.2035 -2.539,4.5121 -2.539,4.5121 -11.555,-10.2399 -12.444,-17.4098 -11.721,-21.093 0.16,-1.0781 0.523,-2.0277 1.099,-2.7805 0.036,-0.0496 0.059,-0.0781 0.059,-0.0781 l 0.004,0.0059 c 0.269,-0.3379 0.574,-0.6422 0.932,-0.8918 3.207,-2.2399 8.771,0.1765 12.554,5.391 4.457,-1.6946 5.117,1.7887 10.27,0.5215 -3.91,0.6992 2.469,4.2402 3.949,-0.0106 0.441,-2.9367 0.381,-3.2238 1.904,-5.0012 1.844,-2.4343 4.703,-5.725 6.225,-8.9515 0.797,-1.6922 2.176,-3.1262 3.537,-4.9461 3.494,-4.8527 6.576,-10.1328 17.004,-12.5039 5.719,-1.091 12.924,2.7519 15.027,8.3515 2.299,5.4758 1.334,9.9688 0.367,13.7934 -1.357,4.0414 -4.263,6.2582 -6.552,8.1969 z m 7.65,13.8371 -0.015,-0.0266 0.195,-0.1363 0.002,0.0113 -0.182,0.1516 z m 0.094,0.2648 c -0.08,0.0301 -0.24,0.0883 -0.24,0.0879 -0.049,0.4274 -0.391,0.5965 -0.709,0.7754 l -0.006,-0.234 c 0.16,-0.1258 0.244,-0.0738 0.168,0.1067 0.156,-0.4336 0.402,-0.7297 0.693,-1.0008 0.053,0.0808 0.137,0.1488 0.094,0.2648 z m -3.516,3.2953 0.319,-0.2222 c -0.073,0.0871 -0.174,0.1648 -0.319,0.2222 z m 0.528,-0.3226 0.002,-0.0012 -0.211,0.1016 0.113,-0.209 c -0.006,0.0691 0.01,0.1242 0.096,0.1086 z m 0.074,-0.016 -0.072,0.0148 0.13,-0.0664 -0.058,0.0516 z m -19.576,4.9648 0.361,-0.1441 c -0.072,0.0449 -0.211,0.0906 -0.361,0.1441 z m 3.017,1.5141 c -0.519,-0.0215 -1.056,-0.1125 -1.586,-0.1758 0.287,-0.0469 0.576,-0.1543 0.86,-0.3516 0.343,-0.1105 0.482,0.2528 0.726,0.5274 z m 17.248,-7.0922 -0.328,0.2902 0.092,-0.2347 c 0.049,-0.0907 0.137,-0.0625 0.236,-0.0555 z m -3,0.8324 c -0.343,0.1188 -1.32,0.2281 -0.884,-0.0473 0.664,-0.3945 1.136,-0.5988 1.724,-0.9753 0.541,-0.2219 1.067,-0.4414 1.598,-0.7161 l 0.34,-0.3289 -0.387,0.5289 c -0.178,0.2618 -0.731,0.1598 -1.15,0.375 -0.083,0.0129 0.142,0.2774 -0.022,0.3043 -0.336,0.1313 -0.664,0.1832 -0.92,0.375 -0.164,0.0204 -0.133,0.4637 -0.299,0.4844 z m -47.478,3.4125 c -0.205,0.1485 -0.447,0.2246 -0.672,0.3359 l 0.322,-0.1988 0.35,-0.1371 z m -1.576,0.6559 0.207,-0.1399 c -0.037,0.027 -0.139,0.1004 -0.207,0.1399 z m -0.34,0.155 c -0.176,0.0692 -0.385,0.1379 -0.633,0.2012 l 0.633,-0.2012 z m 0.49,-0.1328 -0.111,0.0286 0.23,-0.0832 -0.119,0.0546 z m 5.166,0.8219 c -0.531,0.607 0.543,-0.2828 0.771,-0.791 0.014,-0.041 0.026,-0.0918 0.038,-0.1426 -0.098,0.0684 -0.194,0.1207 -0.289,0.1762 -0.127,0.2476 -0.29,0.498 -0.52,0.7574 z m 0.9,-1.8148 c -0.035,-0.0617 -0.068,-0.1231 -0.064,-0.1703 l -0.004,0.0332 c -0.014,0.075 -0.016,0.1511 -0.016,0.2265 0.03,-0.0285 0.055,-0.0601 0.084,-0.0894 z m -7.703,1.7117 c 0.67,0.109 1.319,0.3437 2.033,0.2266 -0.306,0.0265 -0.271,0.0671 0.079,0.082 l 0.271,-0.0672 c -0.611,-0.0133 -1.193,-0.1481 -1.769,-0.1774 0,0 -0.25,-0.0824 -0.373,-0.1226 -0.192,-0.0176 -0.194,0.0289 -0.241,0.0586 l -0.394,-0.0887 c 0.301,-0.014 1.187,0.0653 1.187,0.0653 1.664,0.332 3.33,0.2394 4.781,-0.3188 0.122,-0.0164 0.215,-0.0172 0.358,-0.0898 l 0.316,-0.1875 0.576,-0.3582 0.211,-0.1161 0.006,-0.0011 c 0.117,-0.0547 0.1,-0.0184 0.045,0.0414 l 0.262,-0.2633 c 0.057,-0.0484 0.117,-0.0953 0.178,-0.1426 -0.039,0.0328 -0.082,0.0649 -0.125,0.0961 -0.018,0.0152 -0.039,0.0309 -0.053,0.0465 l -0.09,0.0644 -0.156,0.1231 c 0.023,-0.0203 0.047,-0.041 0.07,-0.0613 l -0.137,0.0968 -0.103,0.0481 c 0.234,-0.1641 0.453,-0.3488 0.658,-0.5449 0.002,-0.0969 0.002,-0.1934 0.026,-0.2871 l 0.019,-0.17 0,-0.0093 c 0.088,0.0332 0.193,0.0714 0.016,0.0371 l -0.012,0.1304 c 0.01,-0.0578 0.086,-0.0898 0.295,-0.0715 0.015,-0.0175 0.033,-0.0324 0.047,-0.0496 -0.168,-0.0386 -0.28,-0.0621 -0.342,-0.0738 l 0.002,-0.0062 c 0.127,0.0293 0.238,0.055 0.34,0.0789 0.023,-0.0274 0.052,-0.0512 0.074,-0.0789 0.059,-0.1719 0.432,-0.0137 0.254,0.0906 -0.002,0.0215 -0.004,0.0426 -0.006,0.064 0,0.0114 -0.002,0.0215 -0.002,0.0325 0.084,0.0168 0.18,0.0383 0.285,0.0633 -0.105,0.1183 -0.207,0.2246 -0.31,0.3261 -0.006,0.2043 -0.012,0.3891 -0.039,0.5254 l -0.086,0.2774 0.006,-0.0571 -0.022,0.1059 c -0.086,0.4062 -0.363,0.7262 -0.561,1.0801 -0.429,0.566 -0.968,1.0429 -1.562,1.4593 0.18,-0.1527 0.377,-0.3832 0.439,-0.4398 -0.152,0.0391 -0.601,0.5 -0.746,0.5414 0.043,0.0813 0.157,0.0211 0.284,-0.0824 -0.067,0.0449 -0.122,0.0992 -0.186,0.1426 1.57,-0.4629 4.496,-1.5125 5.84,-3.4704 0.346,-0.373 0.64,-0.7941 0.922,-1.221 -0.018,-0.1043 -0.033,-0.209 -0.057,-0.3133 l -0.019,-0.118 c 0.57,0.0508 -0.832,-0.0773 0.337,0.0281 l 0.143,-0.2394 c 0.258,-0.0024 -0.428,-0.2711 0.605,-0.0551 l 0.051,0.2445 c 0.006,0.0414 0.016,0.0825 0.026,0.1246 0.127,0.0114 0.254,0.0231 0.404,0.036 l -0.002,0.0047 -0.006,0.0097 -0.01,0.018 -0.021,0.0371 -0.039,0.0738 -0.164,0.2743 -0.057,0.0871 c 0.016,0.1074 0.026,0.2152 0.018,0.3265 0.047,0.5914 -0.071,1.1938 -0.287,1.7633 0.857,-0.6988 1.58,-1.5734 2.224,-2.4617 0.377,-0.1879 0.371,-0.5813 0.518,-0.893 -0.076,-0.0019 -0.112,-0.0027 0,-8e-4 0.142,-0.3015 0.426,-0.5254 1.344,-0.4062 0.066,0.1473 0.109,0.2937 0.152,0.4398 0.047,8e-4 0.084,0.002 0.133,0.0028 l -0.01,0.0172 -0.02,0.0332 -0.041,0.0668 -0.013,0.0242 c 0.142,0.5566 0.148,1.1004 0.156,1.6316 -0.002,0.252 -0.023,0.4945 -0.041,0.7395 0.227,-0.0887 0.437,-0.1856 0.475,-0.3942 0.957,-0.839 1.882,-1.7062 2.652,-2.707 1.584,-1.9586 2.771,-4.2594 3.418,-6.8297 0.586,-1.941 1.211,-5.6797 1.144,-7.6441 0.149,-2.5969 0.791,-1.327 0.862,-1.1848 0.545,1.5977 0.394,2.909 0.09,6.0773 0.115,-1.4488 -0.61,2.1676 -1.1,4.2204 -0.576,3.2945 -3.611,7.2085 -6.826,9.6527 l -0.608,0.4844 -0.314,0.2437 -0.02,0.0156 -0.009,0.0079 -0.006,0.0035 0,4e-4 c 1.154,0.7828 -1.574,-1.0649 -1.293,-0.875 l 0,-0.0036 0.008,-0.0402 0.017,-0.0832 0.031,-0.1801 c 0.071,-0.4312 0.135,-0.8957 0.155,-1.3683 l -0.01,0.0148 c -0.961,1.2098 -2,2.4059 -3.594,3.2035 l -0.144,0.0766 -0.073,0.0383 -0.009,0.0043 -0.004,0.0023 c 0.802,1.3594 -1.098,-1.8484 -0.903,-1.5183 l 0.01,-0.009 0.117,-0.118 0.243,-0.3273 c 0.015,-0.0235 0.025,-0.05 0.039,-0.0743 -0.399,0.4313 -0.821,0.8473 -1.288,1.2364 -1.466,1.0672 -3.046,1.7625 -4.607,1.748 l -0.42,0.052 -0.213,0.0281 -0.105,0.0152 -0.053,0.0074 -0.014,0.002 -0.002,4e-4 c -0.134,-0.5258 0.303,1.1762 -0.304,-1.1793 l 0.002,0 0.002,-0.0012 0.004,-0.0027 0.017,-0.0098 0.567,-0.3988 c 0.365,-0.2895 0.683,-0.602 0.91,-0.8867 0.224,-0.2461 0.394,-0.502 0.529,-0.7594 -0.58,0.3234 -1.109,0.459 -1.518,0.6262 -0.38,0.1785 -0.728,0.3316 -1.089,0.391 l -0.696,0.1308 -0.465,0.0426 c -1.13,-0.0597 -2.39,-0.1996 -3.513,-0.564 l 0.019,-0.0094 z m 1.522,-0.6887 0.004,-0.0015 -0.379,0.1042 0.34,-0.155 c -0.069,0.0453 -0.096,0.0777 0.035,0.0523 z m -2,-0.0808 0.818,-0.1879 c 0.936,-0.2344 1.846,-0.4926 2.723,-0.9571 l 0.672,-0.4316 -0.885,0.6246 c -0.44,0.2691 -1.082,0.3731 -1.842,0.6 -0.121,0.0231 -0.049,0.1516 -0.297,0.1992 -0.474,0.4836 -1.297,-0.5371 -1.392,1.0403 0.254,0.0828 0.697,0.0066 0.943,0.0882 0.58,0.2137 2.152,0.5614 1.213,0.4664 -0.693,-0.1445 -1.262,-0.2722 -1.813,-0.3964 L 173.532,83.9 c -0.092,-1.7949 0.19,-0.5328 0.27,-0.9523 z m 9.082,-0.918 -0.33,0.343 0.345,-0.384 0.053,-0.0711 c 0.006,0.0019 0.008,0.0027 0.016,0.0047 l -0.084,0.1074 z m 0.08,-0.1293 0.015,-0.0211 c 0.2,0.0523 0.084,0.0352 -0.015,0.0211 z m 0.015,-0.0211 c -0.078,-0.0203 -0.201,-0.0512 -0.396,-0.0981 0.117,0.0278 0.246,0.0583 0.398,0.0954 l -0.002,0.0027 z m -0.015,0.0211 -0.012,0.0172 c -0.129,-0.0348 -0.066,-0.0278 0.012,-0.0172 z m -1.045,-0.2676 -0.004,0.0274 c -0.07,-0.0278 -0.127,-0.0512 0.004,-0.0274" /></g></svg>