<?xml version="1.0" encoding="UTF-8" standalone="no"?>
<!-- Created with Inkscape (http://www.inkscape.org/) -->

<svg
   xmlns:dc="http://purl.org/dc/elements/1.1/"
   xmlns:cc="http://creativecommons.org/ns#"
   xmlns:rdf="http://www.w3.org/1999/02/22-rdf-syntax-ns#"
   xmlns:svg="http://www.w3.org/2000/svg"
   xmlns="http://www.w3.org/2000/svg"
   xmlns:sodipodi="http://sodipodi.sourceforge.net/DTD/sodipodi-0.dtd"
   xmlns:inkscape="http://www.inkscape.org/namespaces/inkscape"
   version="1.1"
   id="svg255"
   xml:space="preserve"
   width="280.28"
   height="65.58667"
   viewBox="0 0 280.28 65.58667"
   sodipodi:docname="ND.svg"
   inkscape:version="0.92.1 r15371"><metadata
     id="metadata261"><rdf:RDF><cc:Work
         rdf:about=""><dc:format>image/svg+xml</dc:format><dc:type
           rdf:resource="http://purl.org/dc/dcmitype/StillImage" /><dc:title></dc:title></cc:Work></rdf:RDF></metadata><defs
     id="defs259" /><sodipodi:namedview
     pagecolor="#ffffff"
     bordercolor="#666666"
     borderopacity="1"
     objecttolerance="10"
     gridtolerance="10"
     guidetolerance="10"
     inkscape:pageopacity="0"
     inkscape:pageshadow="2"
     inkscape:window-width="1916"
     inkscape:window-height="1060"
     id="namedview257"
     showgrid="false"
     inkscape:zoom="6.250892"
     inkscape:cx="140.14"
     inkscape:cy="32.793335"
     inkscape:window-x="0"
     inkscape:window-y="18"
     inkscape:window-maximized="0"
     inkscape:current-layer="g263" /><g
     id="g263"
     inkscape:groupmode="layer"
     inkscape:label="ink_ext_XXXXXX"
     transform="matrix(1.3333333,0,0,-1.3333333,0,65.586667)"><path
       inkscape:connector-curvature="0"
       id="path267"
       style="fill:#100f0d;fill-opacity:1;fill-rule:nonzero;stroke:none;stroke-width:0.1"
       d="m 60.4773,21.2543 c 0,-0.7227 0,-3.6805 0.0688,-4.2332 -0.1867,-0.2727 -0.5266,-0.3613 -0.8137,-0.3391 -0.3828,0.509 -1.084,1.3223 -2.8136,3.293 l -5.6305,6.4309 c -1.5664,1.7527 -2.3371,2.666 -2.7445,3.0261 -0.0731,0 -0.0731,-0.2664 -0.0731,-1.5429 v -4.6836 c 0,-1.8086 0.0273,-4.0235 0.4316,-4.7481 0.2188,-0.3562 0.625,-0.5 1.2305,-0.5965 l 0.5266,-0.0683 c 0.2144,-0.1731 0.1922,-0.634 -0.0481,-0.7031 -0.8894,0.0449 -1.8269,0.0691 -2.7461,0.0691 -1.0039,0 -1.6543,-0.0242 -2.498,-0.0691 -0.1934,0.1218 -0.2383,0.53 -0.0469,0.7031 l 0.5281,0.1113 c 0.4582,0.0789 0.8887,0.1707 1.0637,0.5535 0.3074,0.7481 0.3074,2.8457 0.3074,4.7481 v 5.7004 c 0,1.875 0.0254,2.2605 -0.7937,2.955 -0.2656,0.2129 -0.9356,0.4102 -1.2735,0.4871 l -0.3632,0.0696 c -0.1668,0.1406 -0.1453,0.623 0.1015,0.6972 0.9082,-0.0988 2.2305,-0.0742 2.8379,-0.0742 0.5,0 1.0781,0.0262 1.6543,0.0742 0.4141,-1.041 3.0371,-4.0664 3.8738,-4.9777 l 2.4106,-2.6016 c 1.0113,-1.1113 3.243,-3.6562 3.4891,-3.8066 0.0703,0.0742 0.0703,0.1934 0.0703,0.584 v 4.6914 c 0,1.798 -0.0235,4.0156 -0.4621,4.7383 -0.2149,0.3574 -0.5985,0.5019 -1.2,0.6054 l -0.5528,0.0696 c -0.2129,0.1629 -0.1914,0.623 0.0508,0.6972 0.9336,-0.048 1.8262,-0.0742 2.7645,-0.0742 1.0343,0 1.6593,0.0262 2.5265,0.0742 0.1973,-0.123 0.2422,-0.5343 0.0488,-0.6972 L 61.8477,32.2934 C 61.3895,32.225 60.9844,32.1215 60.8105,31.7426 60.4773,30.9957 60.4773,28.9059 60.4773,27.0043 v -5.75" /><path
       inkscape:connector-curvature="0"
       id="path269"
       style="fill:#100f0d;fill-opacity:1;fill-rule:nonzero;stroke:none;stroke-width:0.1"
       d="m 72.6902,33.4234 c -5.0507,0 -8.6132,-3.63 -8.6132,-8.5363 0,-4.2859 3.1261,-8.1043 8.5675,-8.1043 4.8512,0 8.4645,3.5293 8.4645,8.2703 0,4.3789 -2.8613,8.3703 -8.4188,8.3703 z M 72.375,32.4645 c 3.8316,0 5.4664,-4.2141 5.4664,-7.845 0,-4.8347 -2.2148,-6.8816 -4.9586,-6.8816 -4.114,0 -5.5371,4.5242 -5.5371,7.8418 0,5.1269 2.627,6.8848 5.0293,6.8848" /><path
       inkscape:connector-curvature="0"
       id="path271"
       style="fill:#100f0d;fill-opacity:1;fill-rule:nonzero;stroke:none;stroke-width:0.1"
       d="m 88.5523,31.0199 c 0,1.0117 -0.0175,1.0539 -0.6464,1.0539 H 87.193 c -2.209,0 -2.8575,-0.2648 -3.7461,-2.2082 -0.1739,-0.1445 -0.6739,-0.0722 -0.7715,0.168 0.4043,1.3 0.7715,2.7891 0.9355,3.6379 0.045,0.0683 0.1485,0.0918 0.2676,0.0918 0.0957,0 0.1934,-0.0235 0.2383,-0.0918 0.125,-0.6047 0.4629,-0.6309 2.0937,-0.6309 h 8.5352 c 1.1758,0 1.5391,0.0742 1.8281,0.6309 0.0957,0.0437 0.1914,0.0918 0.2871,0.0918 0.1446,0 0.2676,-0.0481 0.3164,-0.1184 -0.246,-0.9851 -0.4375,-3.0566 -0.3652,-3.8269 -0.123,-0.2004 -0.5273,-0.2473 -0.7441,-0.0762 -0.3106,1.8816 -0.7676,2.332 -3.3399,2.332 h -0.7324 c -0.6289,0 -0.6543,-0.0422 -0.6543,-1.0539 V 20.6234 c 0,-2.5488 0.2227,-2.6191 1.3535,-2.7421 l 0.8633,-0.0887 c 0.168,-0.1731 0.1465,-0.6016 -0.0469,-0.7031 -1.3984,0.0449 -2.4765,0.0691 -3.5371,0.0691 -1.0547,0 -2.1914,-0.0242 -3.7285,-0.0691 -0.1934,0.1015 -0.2207,0.5789 -0.0488,0.7031 l 1.0097,0.1113 c 1.127,0.1004 1.3457,0.1707 1.3457,2.7195 v 10.3965" /><path
       inkscape:connector-curvature="0"
       id="path273"
       style="fill:#100f0d;fill-opacity:1;fill-rule:nonzero;stroke:none;stroke-width:0.1"
       d="m 101.505,20.6234 c 0,-2.5488 -0.214,-2.6191 -1.345,-2.7625 l -0.5315,-0.0683 c -0.2129,-0.1731 -0.1445,-0.6016 0.0469,-0.7031 1.1076,0.0449 2.1916,0.0691 3.2496,0.0691 1.057,0 2.139,-0.0242 3.194,-0.0691 0.199,0.1015 0.226,0.53 0.05,0.7031 l -0.525,0.0683 c -1.131,0.1434 -1.352,0.2137 -1.352,2.7625 v 3.0801 c 0,0.5059 0.028,0.5332 0.749,0.5332 0.791,0 1.06,-0.0965 1.492,-0.8191 0.576,-0.9387 1.256,-2.2668 1.9,-3.2766 1.471,-2.2371 2.723,-3.1746 5.029,-3.1746 0.838,0 1.299,0.0789 1.586,0.1465 0.069,0.123 0.069,0.3855 -0.048,0.4812 -0.288,0.0254 -0.981,0.17 -1.661,0.7493 -1.129,0.9394 -2.336,2.9804 -4.254,6.2304 -0.097,0.1453 -0.144,0.3348 0,0.4102 1.178,0.4812 2.887,1.5879 2.887,3.7988 0,1.7285 -0.892,2.8633 -2.115,3.5106 -1.061,0.5781 -2.693,0.8214 -4.576,0.8214 -1.971,0 -4.016,-0.0742 -5.5314,-0.2218 -0.1894,-0.12 -0.1894,-0.4981 -0.0234,-0.668 l 0.6248,-0.0703 c 1.131,-0.1231 1.154,-0.4121 1.154,-2.7227 z m 2.787,10.3477 c 0,1.1027 0.028,1.1836 1.28,1.1836 2.094,0 3.322,-1.6621 3.322,-3.5652 0,-2.2872 -1.084,-3.4395 -3.443,-3.4395 -1.159,0 -1.159,0.0457 -1.159,0.8152 v 5.0059" /><path
       inkscape:connector-curvature="0"
       id="path275"
       style="fill:#100f0d;fill-opacity:1;fill-rule:nonzero;stroke:none;stroke-width:0.1"
       d="m 119.13,29.5707 c 0,2.5508 -0.214,2.6309 -1.347,2.7949 l -0.385,0.052 c -0.162,0.1629 -0.145,0.5984 0.053,0.6972 0.453,-0.0195 0.961,-0.048 1.488,-0.048 0.529,-0.0262 1.084,-0.0262 1.611,-0.0262 h 4.598 c 1.541,0 2.939,0.0262 3.246,0.0742 0.094,-0.4132 0.24,-2.3117 0.383,-3.3437 -0.096,-0.2004 -0.574,-0.2434 -0.766,-0.0988 -0.386,1.3976 -0.748,1.9961 -1.517,2.1886 -0.553,0.1707 -1.278,0.2129 -1.924,0.2129 h -1.613 c -1.038,0 -1.038,-0.0422 -1.038,-1.4101 v -4.0723 c 0,-0.6262 0.026,-0.6504 0.584,-0.6504 h 1.147 c 2.101,0 2.508,0.0242 2.678,1.0633 l 0.166,0.8137 c 0.195,0.1726 0.65,0.1726 0.769,-0.0227 -0.023,-0.6473 -0.066,-1.5137 -0.066,-2.4062 0,-0.9071 0.043,-1.7578 0.066,-2.5274 -0.119,-0.1707 -0.574,-0.1707 -0.769,-0.0203 l -0.166,0.9629 c -0.17,1.0059 -0.577,1.0555 -2.678,1.0555 h -1.147 c -0.558,0 -0.584,-0.0496 -0.584,-0.6504 v -3.0586 c 0,-1.2227 0.047,-2.0848 0.414,-2.4981 0.288,-0.3367 0.696,-0.5293 2.717,-0.5293 3.053,-0.0488 3.584,0.6524 4.426,2.6016 0.217,0.166 0.629,0.0938 0.77,-0.1434 -0.141,-1.0089 -0.676,-2.8437 -1.012,-3.4921 -0.529,0.0234 -1.299,0.0449 -2.307,0.0449 -1.008,0.0242 -2.215,0.0242 -3.633,0.0242 h -2.744 c -1.054,0 -2.523,-0.0242 -3.609,-0.0691 -0.191,0.1015 -0.213,0.53 -0.043,0.7031 l 0.885,0.0887 c 1.133,0.123 1.347,0.1933 1.347,2.7421 v 8.9473" /><path
       inkscape:connector-curvature="0"
       id="path277"
       style="fill:#100f0d;fill-opacity:1;fill-rule:nonzero;stroke:none;stroke-width:0.1"
       d="m 140.664,20.6234 c 0,-2.5488 -0.211,-2.6191 -1.344,-2.7625 l -0.531,-0.0683 c -0.163,-0.1731 -0.143,-0.6016 0.05,-0.7031 1.055,0.0449 2.141,0.0691 3.055,0.0691 0.453,0 0.963,-0.0242 1.537,-0.0691 0.578,-0.0227 1.231,-0.0684 1.953,-0.0684 2.188,0 4.256,0.284 5.965,1.1523 2.983,1.5164 4.309,4.2528 4.309,6.9286 0,3.589 -2.051,6.1308 -4.936,7.1914 -1.752,0.6308 -3.394,0.8214 -5.674,0.8214 -2.359,0 -4.287,-0.0742 -6.015,-0.2218 -0.194,-0.12 -0.194,-0.545 -0.024,-0.668 l 0.5,-0.0508 c 1.135,-0.1426 1.155,-0.4316 1.155,-2.7422 z m 2.793,9.4102 c 0,1.1328 0.023,1.6348 0.193,1.7754 0.168,0.1504 0.943,0.3457 1.943,0.3457 4.024,0 6.789,-2.3145 6.789,-7.0742 0,-4.0711 -1.922,-7.0977 -6.205,-7.0977 -2.554,0 -2.72,1.2461 -2.72,3.5832 v 8.4676" /><path
       inkscape:connector-curvature="0"
       id="path279"
       style="fill:#100f0d;fill-opacity:1;fill-rule:nonzero;stroke:none;stroke-width:0.1"
       d="m 164.789,23.057 c 0.675,0 0.748,0 0.988,-0.6504 l 1.127,-3.2734 c 0.314,-1.032 0.242,-1.1758 -0.619,-1.2723 l -0.535,-0.0683 c -0.139,-0.1516 -0.12,-0.5813 0.076,-0.7031 0.838,0.0234 1.898,0.0691 2.929,0.0691 1.252,0 2.147,-0.0242 3.133,-0.0691 0.166,0.1218 0.166,0.53 -0.025,0.7031 l -0.36,0.0683 c -1.226,0.2137 -1.351,0.3836 -1.902,1.9961 l -3.469,10.0801 c -0.382,1.0828 -0.689,2.2176 -1.076,3.2957 -0.099,0.1211 -0.223,0.1906 -0.412,0.1906 -0.051,0 -0.84,-0.9816 -1.682,-1.1523 0.073,-0.4102 -0.146,-0.9883 -0.461,-1.7598 l -3.298,-8.5625 c -0.5,-1.298 -0.887,-2.3066 -1.176,-2.9328 -0.361,-0.7969 -0.623,-1.0117 -1.322,-1.1121 l -0.723,-0.1113 c -0.164,-0.2188 -0.141,-0.5813 0.027,-0.7031 0.84,0.0449 1.588,0.0691 2.377,0.0691 0.989,-0.0242 1.785,-0.0242 2.549,-0.0691 0.199,0.1015 0.219,0.53 0.049,0.7031 l -0.695,0.1113 c -0.893,0.1258 -0.987,0.1973 -0.502,1.6199 l 0.984,2.8828 c 0.213,0.6504 0.193,0.6504 0.816,0.6504 z m -2.817,1.0832 c -0.57,0 -0.644,0 -0.385,0.6922 l 1.008,2.8176 c 0.44,1.1328 0.629,1.7305 0.723,1.9012 h 0.047 c 0.123,-0.1707 0.267,-0.6258 0.677,-1.9012 l 1.014,-2.8859 c 0.192,-0.5762 0.096,-0.6239 -0.578,-0.6239 h -2.506" /><path
       inkscape:connector-curvature="0"
       id="path281"
       style="fill:#100f0d;fill-opacity:1;fill-rule:nonzero;stroke:none;stroke-width:0.1"
       d="m 193.951,17.7926 c 0.238,-0.1016 0.213,-0.6016 -0.047,-0.7031 -1.039,0.0449 -1.977,0.0691 -2.94,0.0691 -1.129,0 -2.166,-0.0242 -3.22,-0.0691 -0.194,0.1015 -0.291,0.5515 -0.053,0.7031 l 0.652,0.1113 c 0.963,0.1473 1.032,0.3406 1.032,1.9785 v 7.6016 2.2371 h -0.047 c -0.653,-1.3242 -0.985,-2.0449 -1.444,-3.0066 l -2.064,-4.2356 c -0.82,-1.6824 -2.028,-4.3555 -2.461,-5.4832 -0.094,-0.0969 -0.453,-0.0969 -0.623,0 -0.406,1.2988 -1.444,3.6551 -1.99,4.8563 l -2.147,4.6191 c -0.455,1.0129 -1.105,2.5312 -1.391,3.25 h -0.054 c -0.047,-1.1797 -0.092,-3.0566 -0.139,-4.0645 -0.053,-1.4687 -0.103,-3.6132 -0.103,-5.582 0,-1.5945 0.025,-1.9734 1.062,-2.1445 l 0.791,-0.1375 c 0.172,-0.1516 0.172,-0.6016 -0.019,-0.7031 -0.895,0.0449 -1.639,0.0691 -2.53,0.0691 -0.769,0 -1.633,-0.0242 -2.568,-0.0691 -0.227,0.1218 -0.227,0.5789 -0.078,0.7031 l 0.408,0.0418 c 1.152,0.1484 1.344,0.509 1.494,1.9785 0.195,1.5109 0.244,3.0684 0.36,5.5762 0.097,1.6347 0.238,3.6347 0.238,5.1035 0,1.1308 -0.354,1.6289 -1.295,1.7785 l -0.82,0.1465 c -0.141,0.1629 -0.123,0.623 0.097,0.6972 0.723,-0.048 1.369,-0.0742 2.262,-0.0742 0.84,0 1.684,0 2.576,0.0742 0.094,-1.4464 0.719,-2.6925 1.317,-3.9972 l 2.652,-5.5567 c 0.191,-0.4023 0.818,-1.6121 1.131,-2.164 0.379,0.6984 0.722,1.3761 1.254,2.5019 l 2.257,4.6211 c 0.768,1.584 1.541,3.002 1.942,4.5949 0.654,-0.048 1.451,-0.0742 1.978,-0.0742 1.014,0 1.854,0.0262 2.53,0.0742 0.261,-0.0988 0.308,-0.5566 0.068,-0.6972 l -0.791,-0.1242 c -1.055,-0.1387 -1.301,-0.5508 -1.301,-1.8301 0,-3.5606 0.045,-7.1211 0.217,-10.6785 0.076,-1.6114 0.336,-1.7805 1.106,-1.8809 l 0.701,-0.1113" /><path
       inkscape:connector-curvature="0"
       id="path283"
       style="fill:#100f0d;fill-opacity:1;fill-rule:nonzero;stroke:none;stroke-width:0.1"
       d="m 199.095,29.5707 c 0,2.5508 -0.215,2.6309 -1.345,2.7949 l -0.387,0.052 c -0.166,0.1629 -0.145,0.5984 0.049,0.6972 0.453,-0.0195 0.961,-0.048 1.492,-0.048 0.529,-0.0262 1.082,-0.0262 1.613,-0.0262 h 4.594 c 1.539,0 2.939,0.0262 3.25,0.0742 0.094,-0.4132 0.238,-2.3117 0.385,-3.3437 -0.098,-0.2004 -0.577,-0.2434 -0.778,-0.0988 -0.375,1.3976 -0.744,1.9961 -1.51,2.1886 -0.556,0.1707 -1.269,0.2129 -1.923,0.2129 h -1.612 c -1.035,0 -1.035,-0.0422 -1.035,-1.4101 v -4.0723 c 0,-0.6262 0.024,-0.6504 0.578,-0.6504 h 1.153 c 2.097,0 2.502,0.0242 2.675,1.0633 l 0.164,0.8137 c 0.192,0.1726 0.647,0.1726 0.766,-0.0227 -0.023,-0.6473 -0.072,-1.5137 -0.072,-2.4062 0,-0.9071 0.049,-1.7578 0.072,-2.5274 -0.119,-0.1707 -0.574,-0.1707 -0.766,-0.0203 l -0.164,0.9629 c -0.173,1.0059 -0.578,1.0555 -2.675,1.0555 h -1.153 c -0.554,0 -0.578,-0.0496 -0.578,-0.6504 v -3.0586 c 0,-1.2227 0.051,-2.0848 0.406,-2.4981 0.291,-0.3367 0.698,-0.5293 2.721,-0.5293 3.055,-0.0488 3.584,0.6524 4.432,2.6016 0.213,0.166 0.625,0.0938 0.767,-0.1434 -0.142,-1.0089 -0.677,-2.8437 -1.011,-3.4921 -0.532,0.0234 -1.303,0.0449 -2.313,0.0449 -1.01,0.0242 -2.211,0.0242 -3.633,0.0242 h -2.74 c -1.059,0 -2.529,-0.0242 -3.613,-0.0691 -0.186,0.1015 -0.215,0.53 -0.047,0.7031 l 0.893,0.0887 c 1.13,0.123 1.345,0.1933 1.345,2.7421 v 8.9473" /><path
       inkscape:connector-curvature="0"
       id="path285"
       style="fill:#100f0d;fill-opacity:1;fill-rule:nonzero;stroke:none;stroke-width:0.1"
       d="m 46.3723,46.4195 c 0,1.4989 -0.1094,1.543 -1.0207,1.743 l -0.3125,0.0625 c -0.1485,0.1133 -0.127,0.4816 0.0476,0.5441 0.7395,-0.0382 1.4192,-0.0625 2.1196,-0.0625 0.689,0 1.3667,0.0243 2.2167,0.0625 0.1747,-0.0625 0.1954,-0.4308 0.0387,-0.5441 l -0.409,-0.0625 c -0.9375,-0.1551 -1.0273,-0.2441 -1.0273,-1.743 V 43.348 c 0,-2.1738 0.7226,-3.655 2.8332,-3.655 1.959,0 2.8094,1.4812 2.8094,3.6328 v 2.0254 c 0,2.1816 -0.127,2.6804 -1.0664,2.8113 l -0.461,0.0625 c -0.1496,0.1328 -0.1269,0.4375 0.0496,0.5441 0.6938,-0.0382 1.1946,-0.0625 1.8254,-0.0625 0.6321,0 1.1145,0.0243 1.8074,0.0625 C 56,48.6625 56,48.3383 55.8438,48.225 L 55.1914,48.1625 C 54.625,48.0961 54.4563,47.5094 54.4563,45.3512 v -2.1543 c 0,-2.7871 -1.2883,-4.2461 -4.0571,-4.2461 -1.3933,0 -2.4351,0.282 -3.0918,0.9121 -0.6531,0.6504 -0.9351,1.6531 -0.9351,3.075 v 3.4816" /><path
       inkscape:connector-curvature="0"
       id="path287"
       style="fill:#100f0d;fill-opacity:1;fill-rule:nonzero;stroke:none;stroke-width:0.1"
       d="m 70.2859,45.3512 c 0,2.1816 -0.1296,2.7215 -0.9343,2.8113 l -0.6961,0.0625 c -0.1516,0.1328 -0.1352,0.4375 0.0418,0.5441 0.8066,-0.0382 1.3047,-0.0625 1.9422,-0.0625 0.6281,0 1.1117,0.0243 1.8039,0.0625 0.1699,-0.1066 0.1699,-0.4308 0.0207,-0.5441 L 71.8152,48.1625 C 71.2449,48.0961 71.073,47.5094 71.073,45.3512 v -3.6555 c 0,-0.4375 0,-2.2 0.0649,-2.5301 -0.0649,-0.1301 -0.2656,-0.2414 -0.4582,-0.1926 -0.2402,0.304 -0.6777,0.7571 -2.0242,2.218 l -3.3117,3.5293 c -0.8282,0.8699 -1.3934,1.4363 -1.6778,1.6797 -0.0859,0 -0.0859,-0.2434 -0.0859,-0.916 v -2.8762 c 0,-2.1836 0.1308,-2.7449 0.9355,-2.8086 l 0.6934,-0.0691 c 0.1765,-0.1281 0.1348,-0.4328 -0.0379,-0.5449 -0.8117,0.0476 -1.3117,0.0691 -1.9356,0.0691 -0.6398,0 -1.0492,-0.0215 -1.8144,-0.0691 -0.175,0.0918 -0.175,0.4363 -0.0219,0.5449 l 0.6543,0.0691 c 0.5637,0.0637 0.7426,0.6535 0.7426,2.8086 v 3.8985 c 0,0.7199 -0.0227,1.0265 -0.4602,1.3496 -0.1718,0.1347 -0.5886,0.2675 -0.8066,0.3066 l -0.325,0.0625 c -0.1508,0.1328 -0.1508,0.4602 0.0418,0.5441 0.8281,-0.0625 1.416,-0.0625 1.8769,-0.0625 0.3047,0 0.6055,0.0243 0.8743,0.0625 0.4297,-0.8293 1.241,-1.7636 2.1257,-2.6757 l 2.054,-2.1094 c 0.4785,-0.4824 1.741,-1.8625 1.9793,-2.0313 0.1296,0.0477 0.1296,0.3543 0.1296,0.8719 v 2.5266" /><path
       inkscape:connector-curvature="0"
       id="path289"
       style="fill:#100f0d;fill-opacity:1;fill-rule:nonzero;stroke:none;stroke-width:0.1"
       d="m 79.6539,46.4195 c 0,1.4989 -0.0879,1.5879 -1.0215,1.743 l -0.416,0.0625 c -0.1504,0.1133 -0.1328,0.4816 0.0469,0.5441 0.8476,-0.0382 1.5254,-0.0625 2.2148,-0.0625 0.7012,0 1.377,0.0243 2.2246,0.0625 0.1739,-0.0625 0.1973,-0.4308 0.045,-0.5441 l -0.4141,-0.0625 c -0.9395,-0.1551 -1.0273,-0.2441 -1.0273,-1.743 v -4.8769 c 0,-1.5071 0.0878,-1.5871 1.0273,-1.7434 l 0.4141,-0.0691 c 0.1523,-0.1086 0.1289,-0.4758 -0.045,-0.5449 -0.8261,0.0476 -1.5507,0.0691 -2.2246,0.0691 -0.6894,0 -1.3672,-0.0215 -2.2148,-0.0691 -0.1797,0.0691 -0.1973,0.4363 -0.0469,0.5449 l 0.416,0.0691 c 0.9336,0.1563 1.0215,0.2363 1.0215,1.7434 v 4.8769" /><path
       inkscape:connector-curvature="0"
       id="path291"
       style="fill:#100f0d;fill-opacity:1;fill-rule:nonzero;stroke:none;stroke-width:0.1"
       d="m 89.691,46.3727 c -0.6543,1.4421 -0.7363,1.5457 -1.2597,1.6804 l -0.7168,0.1719 c -0.1329,0.1328 -0.1563,0.4375 0.0175,0.5441 0.5684,-0.0382 1.2871,-0.0625 1.959,-0.0625 0.791,0 1.4219,0.0243 2.1153,0.0625 0.1796,-0.0839 0.1992,-0.4308 0,-0.5441 L 91.3492,48.1625 C 90.7867,48.0727 90.7867,47.7914 91.2633,46.723 l 1.0683,-2.4128 c 0.545,-1.2442 0.9102,-2.0547 1.2383,-2.7676 0.4395,0.9129 0.8086,1.8269 1.2207,2.7383 0.459,1.0027 1.0684,2.5144 1.2852,3.1453 0.1582,0.457 0.1289,0.6054 -0.5215,0.7363 l -0.3496,0.0625 c -0.1992,0.1328 -0.125,0.4172 0.0449,0.5441 0.6348,-0.0382 1.1953,-0.0625 1.7852,-0.0625 0.6953,0 1.2011,0.0243 1.5488,0.0625 0.2109,-0.0839 0.2598,-0.4308 0.1055,-0.5441 l -0.6094,-0.1289 c -0.6524,-0.1336 -0.7852,-0.3289 -1.4805,-1.8047 l -1.6543,-3.5586 c -0.6523,-1.3906 -1.289,-2.9765 -1.5488,-3.6973 -0.0664,-0.0625 -0.1543,-0.0847 -0.2656,-0.0847 -0.0821,0 -0.1719,0.0222 -0.2539,0.0847 -0.1993,0.5665 -0.4395,1.2657 -0.7227,1.875 l -2.4629,5.4622" /><path
       inkscape:connector-curvature="0"
       id="path293"
       style="fill:#100f0d;fill-opacity:1;fill-rule:nonzero;stroke:none;stroke-width:0.1"
       d="m 104.794,46.4195 c 0,1.4989 -0.089,1.5711 -0.918,1.743 l -0.304,0.0625 c -0.156,0.0891 -0.125,0.4602 0.043,0.5441 0.33,-0.0207 0.658,-0.0382 0.984,-0.0382 0.348,-0.0243 0.693,-0.0243 1.041,-0.0243 h 3.096 c 0.961,0 1.824,0.0243 2.025,0.0625 0.024,-0.2628 0.133,-1.2824 0.239,-2.2218 -0.088,-0.1746 -0.44,-0.1934 -0.567,-0.041 -0.127,0.5636 -0.262,0.8476 -0.392,1.048 -0.344,0.5184 -1.327,0.5184 -1.846,0.5184 h -0.963 c -0.764,0 -0.787,-0.0196 -0.787,-0.6895 v -2.4227 c 0,-0.3957 0,-0.4386 0.414,-0.4386 h 1.025 c 1.157,0 1.26,0.1758 1.438,0.8293 l 0.113,0.4101 c 0.106,0.1629 0.432,0.1336 0.545,-0.0363 -0.045,-0.6316 -0.045,-1.0273 -0.045,-1.5293 0,-0.5437 0,-0.9344 0.045,-1.5644 -0.113,-0.1758 -0.439,-0.1993 -0.545,-0.0497 l -0.113,0.4168 c -0.178,0.6536 -0.281,0.8243 -1.438,0.8243 h -1.025 c -0.414,0 -0.414,-0.0645 -0.414,-0.4969 v -1.5684 c 0,-0.6543 0.045,-1.3332 0.244,-1.5625 0.195,-0.2246 0.59,-0.3086 1.826,-0.3086 1.397,0 2.203,0.0692 2.832,1.8094 0.153,0.1484 0.5,0.1066 0.567,-0.0887 -0.108,-0.9152 -0.414,-2.005 -0.655,-2.4218 -0.67,0.0261 -1.301,0.0476 -1.91,0.0476 -0.613,0.0215 -1.201,0.0215 -1.789,0.0215 h -1.92 c -0.693,0 -1.367,-0.0215 -2.42,-0.0691 -0.17,0.0691 -0.191,0.4363 -0.037,0.5449 l 0.59,0.0691 c 0.932,0.1067 1.021,0.2363 1.021,1.7434 v 4.8769" /><path
       inkscape:connector-curvature="0"
       id="path295"
       style="fill:#100f0d;fill-opacity:1;fill-rule:nonzero;stroke:none;stroke-width:0.1"
       d="m 118.8,41.5426 c 0,-1.5071 -0.084,-1.5461 -1.027,-1.7434 l -0.322,-0.0691 c -0.201,-0.0871 -0.18,-0.4758 0.037,-0.5449 0.767,0.0476 1.439,0.0691 2.135,0.0691 0.679,0 1.398,-0.0215 2.314,-0.0691 0.172,0.0691 0.193,0.4363 0.039,0.5449 l -0.5,0.0691 c -0.939,0.136 -1.027,0.2363 -1.027,1.7434 v 1.5457 c 0,0.3058 0.049,0.3437 0.615,0.3437 0.346,0 0.695,-0.084 0.873,-0.3437 0.453,-0.6973 1.041,-1.6524 1.588,-2.3516 0.959,-1.2195 1.742,-1.6316 3.047,-1.6316 0.42,0 0.717,0.039 0.916,0.1062 0.092,0.0657 0.092,0.2578 0,0.3477 -0.35,0.0156 -0.756,0.134 -1.153,0.4551 -0.72,0.5879 -1.681,1.6543 -2.769,3.4875 -0.066,0.1062 -0.086,0.2422 0,0.3211 0.851,0.3086 1.937,0.9394 1.937,2.3339 0,2.2872 -2.195,2.6125 -4.226,2.6125 -1.194,0 -2.412,-0.0382 -3.61,-0.1269 -0.216,-0.0715 -0.179,-0.5188 0,-0.5461 l 0.61,-0.0887 c 0.496,-0.0676 0.523,-0.4336 0.523,-1.8508 z m 1.649,5.9902 c 0,0.5633 0.156,0.6074 0.961,0.6074 1.525,0 2.291,-0.957 2.291,-2.0468 0,-1.5012 -0.744,-2.0754 -2.155,-2.0754 -1.072,0 -1.097,0 -1.097,0.5468 v 2.968" /><path
       inkscape:connector-curvature="0"
       id="path297"
       style="fill:#100f0d;fill-opacity:1;fill-rule:nonzero;stroke:none;stroke-width:0.1"
       d="m 134.634,43.6996 c -1.045,0.5449 -1.943,1.3938 -1.943,2.6133 0,1.5859 1.223,2.6973 3.426,2.6973 0.758,0 1.283,-0.1993 2.023,-0.325 0.18,-0.3711 0.33,-1.1985 0.309,-2.1379 -0.067,-0.1746 -0.465,-0.1934 -0.567,-0.041 -0.177,0.7636 -0.744,1.8671 -2.023,1.8671 -1.289,0 -1.776,-0.7304 -1.776,-1.4746 0,-0.7832 0.596,-1.2656 1.467,-1.7234 l 1.352,-0.6895 c 0.789,-0.4035 1.758,-1.3164 1.758,-2.7746 0,-1.6972 -1.389,-2.7605 -3.547,-2.7605 -1.332,0 -2.203,0.4558 -2.51,0.6707 -0.191,0.3137 -0.451,1.0918 -0.451,2.2461 0.086,0.2187 0.412,0.2383 0.566,0.0429 0.168,-0.7851 1.125,-2.3359 2.594,-2.3359 1.109,0 1.826,0.5742 1.826,1.5742 0,0.6953 -0.283,1.4102 -1.519,2.0481 l -0.985,0.5027" /><path
       inkscape:connector-curvature="0"
       id="path299"
       style="fill:#100f0d;fill-opacity:1;fill-rule:nonzero;stroke:none;stroke-width:0.1"
       d="m 146.031,46.4195 c 0,1.4989 -0.09,1.5879 -1.028,1.743 l -0.41,0.0625 c -0.156,0.1133 -0.131,0.4816 0.039,0.5441 0.854,-0.0382 1.526,-0.0625 2.223,-0.0625 0.695,0 1.369,0.0243 2.227,0.0625 0.169,-0.0625 0.191,-0.4308 0.035,-0.5441 l -0.41,-0.0625 c -0.936,-0.1551 -1.026,-0.2441 -1.026,-1.743 v -4.8769 c 0,-1.5071 0.09,-1.5871 1.026,-1.7434 l 0.41,-0.0691 c 0.156,-0.1086 0.134,-0.4758 -0.035,-0.5449 -0.832,0.0476 -1.549,0.0691 -2.227,0.0691 -0.697,0 -1.369,-0.0215 -2.223,-0.0691 -0.17,0.0691 -0.195,0.4363 -0.039,0.5449 l 0.41,0.0691 c 0.938,0.1563 1.028,0.2363 1.028,1.7434 v 4.8769" /><path
       inkscape:connector-curvature="0"
       id="path301"
       style="fill:#100f0d;fill-opacity:1;fill-rule:nonzero;stroke:none;stroke-width:0.1"
       d="m 158.531,47.5094 c 0,0.5633 -0.028,0.5633 -0.459,0.5633 h -0.68 c -1.324,0 -1.889,-0.1329 -2.418,-1.627 -0.215,-0.1328 -0.455,-0.073 -0.541,0.1016 0.238,0.9394 0.483,2.0234 0.588,2.5773 0.088,0.084 0.311,0.084 0.395,0 0.023,-0.4394 0.328,-0.418 1.199,-0.418 h 6.054 c 0.803,0 0.961,0.0243 1.133,0.418 0.151,0.084 0.324,0.0418 0.393,-0.0683 -0.176,-0.5645 -0.26,-1.7239 -0.221,-2.55 -0.084,-0.1739 -0.457,-0.1934 -0.543,-0.0254 -0.15,1.4179 -0.723,1.5918 -2.025,1.5918 h -0.742 c -0.418,0 -0.483,0 -0.483,-0.5633 v -5.9668 c 0,-1.5071 0.092,-1.6367 1.029,-1.7434 l 0.588,-0.0691 c 0.149,-0.1086 0.131,-0.4758 -0.045,-0.5449 -0.9,0.0476 -1.72,0.0691 -2.396,0.0691 -0.699,0 -1.481,-0.0215 -2.395,-0.0691 -0.179,0.0691 -0.199,0.4363 -0.045,0.5449 l 0.588,0.0691 c 0.936,0.1067 1.026,0.2363 1.026,1.7434 v 5.9668" /><path
       inkscape:connector-curvature="0"
       id="path303"
       style="fill:#100f0d;fill-opacity:1;fill-rule:nonzero;stroke:none;stroke-width:0.1"
       d="m 172.882,42.1508 c 0,0.6738 -0.064,0.8476 -0.611,1.8555 l -1.586,2.9375 c -0.461,0.871 -0.678,1.0636 -1.242,1.1796 l -0.567,0.1016 c -0.156,0.1328 -0.109,0.4816 0.061,0.5441 0.725,-0.0382 1.221,-0.0625 2.006,-0.0625 0.656,0 1.156,0.0243 1.855,0.0625 0.17,-0.0839 0.239,-0.4308 0.02,-0.5441 l -0.303,-0.0625 c -0.482,-0.1094 -0.553,-0.2441 -0.199,-0.9141 l 0.809,-1.5457 c 0.324,-0.6554 0.648,-1.2461 0.976,-1.8058 0.348,0.589 0.674,1.1054 1.047,1.8058 l 0.871,1.5918 c 0.328,0.6043 0.365,0.8016 -0.15,0.868 l -0.457,0.0625 c -0.202,0.1133 -0.18,0.4602 0.043,0.5441 0.656,-0.0382 1.152,-0.0625 1.652,-0.0625 0.484,0 0.937,0.0243 1.545,0.0625 0.176,-0.0625 0.219,-0.4308 0.051,-0.5441 l -0.524,-0.1016 c -0.678,-0.1328 -0.791,-0.2675 -1.465,-1.3574 l -1.349,-2.1738 c -0.782,-1.2442 -0.824,-1.459 -0.824,-2.0957 v -1.1738 c 0,-1.2872 0.084,-1.4168 1.019,-1.5235 l 0.551,-0.0691 c 0.148,-0.1086 0.125,-0.4758 -0.051,-0.5449 -0.953,0.0476 -1.676,0.0691 -2.348,0.0691 -0.701,0 -1.375,-0.0215 -2.349,-0.0691 -0.178,0.0691 -0.201,0.4363 -0.053,0.5449 l 0.553,0.0691 c 0.935,0.1067 1.019,0.2363 1.019,1.5235 v 0.8281" /><path
       inkscape:connector-curvature="0"
       id="path305"
       style="fill:#100f0d;fill-opacity:1;fill-rule:nonzero;stroke:none;stroke-width:0.1"
       d="m 191.685,49.0805 c -3.158,0 -5.379,-2.2227 -5.379,-5.1219 0,-2.7441 2.004,-4.9387 5.379,-4.9387 3.066,0 5.295,2.1367 5.295,5.0754 0,2.6563 -1.789,4.9852 -5.295,4.9852 z m -0.154,-0.6336 c 2.398,0 3.51,-2.3535 3.51,-4.6817 0,-2.9816 -1.596,-4.1222 -3.249,-4.1222 -2.529,0 -3.55,2.4199 -3.55,4.6672 0,3.073 1.718,4.1367 3.289,4.1367" /><path
       inkscape:connector-curvature="0"
       id="path307"
       style="fill:#100f0d;fill-opacity:1;fill-rule:nonzero;stroke:none;stroke-width:0.1"
       d="m 202.486,46.4242 c 0,1.5039 -0.106,1.5449 -0.916,1.7403 l -0.258,0.0644 c -0.152,0.1145 -0.135,0.4824 0.043,0.5469 0.299,-0.0215 0.609,-0.0449 0.936,-0.0449 0.328,-0.0196 0.677,-0.0196 1.023,-0.0196 h 3.027 c 0.961,0 1.789,0.0196 2.092,0.0645 0.022,-0.2617 0.043,-1.2832 0.115,-2.2266 -0.093,-0.2168 -0.439,-0.2363 -0.58,-0.039 -0.123,0.5664 -0.258,0.8488 -0.385,1.0468 -0.373,0.5442 -1.33,0.5157 -1.853,0.5157 h -0.848 c -0.675,0 -0.736,0 -0.736,-0.7559 v -2.5195 c 0,-0.4032 0,-0.4395 0.41,-0.4395 h 1.174 c 1.156,0 1.268,0.177 1.437,0.8223 l 0.114,0.4152 c 0.107,0.1531 0.429,0.1297 0.539,-0.0422 -0.035,-0.6328 -0.035,-1.0183 -0.035,-1.5254 0,-0.5468 0,-0.9394 0.035,-1.5672 -0.11,-0.173 -0.432,-0.1984 -0.539,-0.0429 l -0.114,0.4109 c -0.169,0.6524 -0.281,0.8281 -1.437,0.8281 h -1.174 c -0.41,0 -0.41,-0.0632 -0.41,-0.4988 v -1.6152 c 0,-1.5039 0.082,-1.6516 1.021,-1.7383 l 0.676,-0.0723 c 0.149,-0.1035 0.127,-0.4718 -0.047,-0.5441 -1.093,0.0449 -1.808,0.0723 -2.482,0.0723 -0.695,0 -1.371,-0.0274 -2.221,-0.0723 -0.176,0.0723 -0.199,0.4406 -0.049,0.5441 l 0.416,0.0723 c 0.936,0.1512 1.026,0.2344 1.026,1.7383 v 4.8816" /><path
       inkscape:connector-curvature="0"
       id="path309"
       style="fill:#100f0d;fill-opacity:1;fill-rule:nonzero;stroke:none;stroke-width:0.1"
       d="m 7.25586,43.309 c 0.16016,-0.4746 0.40508,-1.1973 0.40508,-1.1973 0,0 0.74726,0.1485 1.23828,0.2453 -0.32969,-0.3761 -0.82969,-0.9504 -0.82969,-0.9504 0,0 0.5,-0.5711 0.82969,-0.9492 -0.49102,0.0989 -1.23711,0.2442 -1.23711,0.2442 0,0 -0.24609,-0.7215 -0.40625,-1.1942 -0.16406,0.4727 -0.41016,1.1942 -0.41016,1.1942 0,0 -0.74609,-0.1453 -1.23711,-0.2442 0.33086,0.3781 0.83008,0.9492 0.83008,0.9492 0,0 -0.5,0.5743 -0.83125,0.9504 0.49219,-0.0968 1.23828,-0.2453 1.23828,-0.2453 0,0 0.2461,0.7227 0.41016,1.1973 z M 6.46992,42.7641 c -0.36445,0.0722 -2.38594,0.4726 -2.38594,0.4726 0,0 1.35743,-1.5508 1.60157,-1.8301 -0.24414,-0.2793 -1.60157,-1.83 -1.60157,-1.83 0,0 2.02149,0.3984 2.38594,0.4718 0.11992,-0.3527 0.78594,-2.3019 0.78594,-2.3019 0,0 0.66406,1.9492 0.78242,2.3019 0.36602,-0.0734 2.38752,-0.4718 2.38752,-0.4718 0,0 -1.35744,1.5507 -1.60275,1.83 0.24531,0.2793 1.60275,1.8301 1.60275,1.8301 0,0 -2.0215,-0.4004 -2.38752,-0.4726 -0.11836,0.3515 -0.78242,2.3027 -0.78242,2.3027 0,0 -0.66602,-1.9512 -0.78594,-2.3027" /><path
       inkscape:connector-curvature="0"
       id="path311"
       style="fill:#100f0d;fill-opacity:1;fill-rule:nonzero;stroke:none;stroke-width:0.1"
       d="m 8.04609,13.3258 c 0,-0.002 0,-0.002 0,-0.002 0.01641,0.0067 0.0086,0.002 0,0.002" /><path
       inkscape:connector-curvature="0"
       id="path313"
       style="fill:#100f0d;fill-opacity:1;fill-rule:nonzero;stroke:none;stroke-width:0.1"
       d="m 12.3301,26.0316 c 0.1387,0.3067 0.2246,0.5118 0.3105,0.6614 0.0508,0.0886 0.116,0.1062 0.1875,0.123 l 0.0762,0.0164 c 0.0117,0.0254 0.0195,0.0723 -0.0051,0.0871 -0.0879,-0.005 -0.1883,-0.0097 -0.2957,-0.0097 -0.0976,0 -0.198,0.0047 -0.3242,0.0097 -0.0195,-0.0148 -0.0273,-0.0617 -0.0051,-0.0871 l 0.0879,-0.0195 c 0.0883,-0.0234 0.0988,-0.0457 0.052,-0.1699 -0.1621,-0.418 -0.3411,-0.8418 -0.5047,-1.2246 -0.0293,0.0695 -0.1106,0.25 -0.1653,0.3867 l -0.2187,0.5461 c -0.1211,0.3113 -0.1465,0.3777 -0.1465,0.407 0,0.0234 0.0254,0.0383 0.0899,0.0547 l 0.0761,0.0195 c 0.0293,0.0196 0.0235,0.0703 -0.0058,0.0871 -0.1582,-0.005 -0.2586,-0.0097 -0.3965,-0.0097 -0.1172,0 -0.2473,0.0047 -0.366,0.0097 C 10.75,26.9098 10.75,26.8578 10.7664,26.8355 l 0.0754,-0.0148 c 0.123,-0.0242 0.1504,-0.0672 0.2324,-0.2742 l 0.5274,-1.2863 c 0.0547,-0.1289 0.1023,-0.2762 0.1406,-0.4004 0.0144,-0.0098 0.0344,-0.0157 0.0566,-0.0157 0.0215,0 0.0457,0.0059 0.0508,0.0157 0.0527,0.1535 0.1934,0.5117 0.3176,0.791 l 0.1629,0.3808" /><path
       inkscape:connector-curvature="0"
       id="path315"
       style="fill:#100f0d;fill-opacity:1;fill-rule:nonzero;stroke:none;stroke-width:0.1"
       d="m 13.6836,25.3324 c 0,-0.3242 0.0234,-0.334 0.1641,-0.3484 l 0.0644,-0.0129 c 0.0227,-0.0215 0.0195,-0.0762 -0.0019,-0.0887 -0.1321,0.0047 -0.2676,0.0098 -0.3957,0.0098 -0.1336,0 -0.2735,-0.0051 -0.4032,-0.0098 -0.0234,0.0125 -0.0261,0.0672 -0.0066,0.0887 l 0.0652,0.0129 c 0.1426,0.0144 0.166,0.0242 0.166,0.3484 v 1.1367 c 0,0.3274 -0.0234,0.3372 -0.166,0.3567 l -0.0652,0.0066 c -0.0195,0.0196 -0.0168,0.0774 0.0066,0.0871 0.1297,-0.005 0.2637,-0.0097 0.4032,-0.0097 0.1281,0 0.2636,0.0047 0.3957,0.0097 0.0214,-0.0097 0.0246,-0.0675 0.0019,-0.0871 L 13.8477,26.8258 C 13.707,26.8063 13.6836,26.7965 13.6836,26.4691 v -1.1367" /><path
       inkscape:connector-curvature="0"
       id="path317"
       style="fill:#100f0d;fill-opacity:1;fill-rule:nonzero;stroke:none;stroke-width:0.1"
       d="m 14.9219,26.6547 c 0,0.1269 0,0.1348 -0.0781,0.1348 h -0.168 c -0.2735,0 -0.3535,-0.0332 -0.4641,-0.2821 -0.0191,-0.0195 -0.0816,-0.0078 -0.0957,0.0196 0.052,0.1679 0.0957,0.3562 0.1164,0.4675 0.0047,0.0071 0.0196,0.0098 0.034,0.0098 0.0102,0 0.0246,-0.0027 0.0285,-0.0098 0.0137,-0.08 0.0586,-0.0847 0.2586,-0.0847 h 1.211 c 0.1464,0 0.1906,0.0097 0.2277,0.0847 0.0098,0.0039 0.0234,0.0098 0.0351,0.0098 0.0176,0 0.0332,-0.0059 0.0391,-0.0156 -0.0312,-0.1289 -0.0559,-0.3875 -0.0449,-0.4864 -0.0156,-0.0281 -0.0664,-0.0332 -0.0906,-0.0125 -0.0395,0.2391 -0.0957,0.2997 -0.4133,0.2997 h -0.1699 c -0.0801,0 -0.0801,-0.0079 -0.0801,-0.1348 v -1.3223 c 0,-0.3242 0.0246,-0.334 0.1648,-0.3484 l 0.1074,-0.0129 c 0.0207,-0.0215 0.0188,-0.0762 -0.0066,-0.0887 -0.1727,0.0047 -0.3059,0.0098 -0.4355,0.0098 -0.1289,0 -0.2715,-0.0051 -0.4598,-0.0098 -0.0266,0.0125 -0.0293,0.0723 -0.0051,0.0887 l 0.1231,0.0148 c 0.1386,0.0125 0.166,0.0223 0.166,0.3465 v 1.3223" /><path
       inkscape:connector-curvature="0"
       id="path319"
       style="fill:#100f0d;fill-opacity:1;fill-rule:nonzero;stroke:none;stroke-width:0.1"
       d="m 16.5801,25.7359 c -0.0742,0 -0.1016,0.002 -0.052,0.1297 l 0.1313,0.3594 c 0.0515,0.1457 0.0777,0.2227 0.0906,0.2422 h 0.0066 c 0.0129,-0.0195 0.0305,-0.0781 0.0872,-0.2422 l 0.125,-0.366 c 0.0378,-0.1067 0.0156,-0.1231 -0.0743,-0.1231 z m 0.3562,-0.1398 c 0.0891,0 0.1133,0 0.1438,-0.084 l 0.1262,-0.3699 c 0.0398,-0.132 0.0292,-0.1516 -0.0813,-0.1582 l -0.0652,-0.0129 c -0.0168,-0.0195 -0.0149,-0.0742 0.0093,-0.0887 0.1047,0.0047 0.2414,0.0098 0.3743,0.0098 0.1574,0 0.2707,-0.0051 0.3945,-0.0098 0.0226,0.0145 0.0226,0.0672 -0.0027,0.0887 l -0.0461,0.0129 c -0.1582,0.0242 -0.1719,0.0457 -0.2403,0.2527 l -0.4394,1.2824 c -0.0496,0.1356 -0.0918,0.2774 -0.1406,0.418 -0.0098,0.0156 -0.0254,0.0254 -0.05,0.0254 -0.0055,0 -0.109,-0.127 -0.2157,-0.1496 0.0078,-0.0488 -0.0156,-0.1231 -0.0578,-0.2188 L 16.2285,25.5004 C 16.1609,25.3375 16.1152,25.2055 16.0781,25.1266 16.0313,25.0277 16,24.9984 15.907,24.9859 l -0.0906,-0.0148 c -0.0215,-0.0273 -0.0176,-0.0742 0.0039,-0.0887 0.1074,0.0047 0.2039,0.0098 0.3027,0.0098 0.1231,-0.0051 0.2266,-0.0051 0.3262,-0.0098 0.0235,0.0125 0.0254,0.0672 0.0078,0.0887 l -0.091,0.0148 c -0.116,0.0145 -0.1265,0.0243 -0.064,0.2051 l 0.1082,0.3211 c 0.0293,0.084 0.0402,0.084 0.1179,0.084 h 0.4082" /><path
       inkscape:connector-curvature="0"
       id="path321"
       style="fill:#100f0d;fill-opacity:1;fill-rule:nonzero;stroke:none;stroke-width:0.1"
       d="m 11.5918,21.9176 c 0,-0.3254 -0.0254,-0.3352 -0.1543,-0.3516 l -0.0613,-0.0097 c -0.0199,-0.0227 -0.0168,-0.0793 0.0047,-0.0872 0.123,0.0051 0.2461,0.0079 0.3527,0.0079 0.0516,0 0.1109,-0.0028 0.1766,-0.0079 0.0664,-0.0078 0.1425,-0.0117 0.2246,-0.0117 0.2531,0 0.4941,0.0391 0.6867,0.1485 0.3465,0.1933 0.5008,0.5429 0.5008,0.8781 0,0.4598 -0.2371,0.7832 -0.5703,0.9168 -0.2012,0.0812 -0.3926,0.1035 -0.6563,0.1035 -0.2703,0 -0.4941,-0.0078 -0.6914,-0.0273 -0.0234,-0.0118 -0.0234,-0.0692 -0.0059,-0.084 l 0.0586,-0.0047 c 0.1309,-0.0195 0.1348,-0.0559 0.1348,-0.3508 z m 0.3203,1.1933 c 0,0.1465 0.002,0.2137 0.0234,0.2313 0.0196,0.0137 0.1094,0.0391 0.2247,0.0391 0.4628,0 0.7832,-0.2918 0.7832,-0.8973 0,-0.5176 -0.2227,-0.9063 -0.7149,-0.9063 -0.293,0 -0.3164,0.1641 -0.3164,0.4578 v 1.0754" /><path
       inkscape:connector-curvature="0"
       id="path323"
       style="fill:#100f0d;fill-opacity:1;fill-rule:nonzero;stroke:none;stroke-width:0.1"
       d="m 13.7246,23.057 c 0,0.3215 -0.0293,0.334 -0.168,0.3535 l -0.0507,0.011 c -0.0204,0.0195 -0.0176,0.0703 0.0058,0.0828 0.1192,-0.0047 0.252,-0.0078 0.3836,-0.0078 0.1328,0 0.268,0.0031 0.3977,0.0078 0.0222,-0.0125 0.0273,-0.0633 0.0058,-0.0828 l -0.0664,-0.011 c -0.1379,-0.0195 -0.164,-0.032 -0.164,-0.3535 v -0.7031 c 0,-0.4168 0.1242,-0.7762 0.5351,-0.7762 0.3899,0 0.5508,0.3016 0.5508,0.7664 v 0.386 c 0,0.2285 -0.0027,0.5125 -0.0586,0.6023 -0.0254,0.0461 -0.0723,0.0656 -0.1465,0.0781 l -0.0586,0.0071 c -0.0285,0.0234 -0.0234,0.0789 0.0059,0.0867 0.0984,-0.0047 0.214,-0.0078 0.3281,-0.0078 0.1262,0 0.207,0.0031 0.3152,0.0078 0.0247,-0.0145 0.0305,-0.0633 0.0063,-0.0867 l -0.0676,-0.0129 c -0.0539,-0.0117 -0.1074,-0.0262 -0.1277,-0.0723 -0.0403,-0.0918 -0.0403,-0.364 -0.0403,-0.6023 v -0.3672 c 0,-0.2774 -0.0441,-0.5371 -0.1984,-0.7063 -0.1551,-0.1699 -0.3777,-0.2285 -0.5789,-0.2285 -0.2812,0 -0.4766,0.0606 -0.6144,0.1953 -0.1356,0.1329 -0.1942,0.345 -0.1942,0.6575 v 0.7761" /><path
       inkscape:connector-curvature="0"
       id="path325"
       style="fill:#100f0d;fill-opacity:1;fill-rule:nonzero;stroke:none;stroke-width:0.1"
       d="m 16.3945,23.057 c 0,0.3164 0.0243,0.3243 0.166,0.3477 l 0.0633,0.0098 c 0.0246,0.0187 0.0215,0.0773 -0.0066,0.0898 -0.1301,-0.0047 -0.2609,-0.0078 -0.3965,-0.0078 -0.134,0 -0.2687,0.0031 -0.4148,0.0078 -0.0286,-0.0125 -0.0286,-0.0711 -0.0063,-0.0898 l 0.082,-0.0098 c 0.1399,-0.0234 0.1664,-0.0313 0.1664,-0.3477 v -1.1394 c 0,-0.3196 -0.0265,-0.3274 -0.1664,-0.3469 L 15.793,21.5563 c -0.0285,-0.0176 -0.0176,-0.0793 0.0066,-0.0872 0.1234,0.0051 0.2734,0.0079 0.4211,0.0079 h 0.3106 c 0.1667,0 0.3171,0 0.4355,-0.0028 0.1223,0 0.2156,-0.0031 0.2773,-0.0051 0.0364,0.0821 0.1036,0.3137 0.125,0.4434 -0.0168,0.0246 -0.0593,0.0313 -0.0918,0.0148 -0.1367,-0.3136 -0.1843,-0.3293 -0.5136,-0.3293 -0.2403,0 -0.2864,0.0254 -0.3223,0.0684 -0.043,0.0527 -0.0469,0.1594 -0.0469,0.3156 v 1.075" /><path
       inkscape:connector-curvature="0"
       id="path327"
       style="fill:#100f0d;fill-opacity:1;fill-rule:nonzero;stroke:none;stroke-width:0.1"
       d="m 16.9844,22.4645 -0.0059,-0.0266 h 0.0906 l 0.0071,0.0226 c 0.0285,0.079 0.0652,0.1805 0.1883,0.1805 0.0429,-0.0019 0.0878,-0.0144 0.2101,-0.0703 l 0.0313,-0.0156 c 0.2421,-0.1113 0.2734,-0.127 0.3546,-0.1238 0.1305,-0.0051 0.2821,0.1015 0.3133,0.3386 l 0.0039,0.0254 -0.0925,-0.0027 -0.0051,-0.0149 c -0.0274,-0.1316 -0.0867,-0.1933 -0.1875,-0.1933 -0.0559,0.0031 -0.075,0.0078 -0.2813,0.1066 -0.1953,0.0887 -0.259,0.1082 -0.3261,0.1082 0,0 -0.2481,0.0176 -0.3008,-0.3347" /><path
       inkscape:connector-curvature="0"
       id="path329"
       style="fill:#100f0d;fill-opacity:1;fill-rule:nonzero;stroke:none;stroke-width:0.1"
       d="m 29.2703,19.1273 c 0,0 -1.2344,-0.7871 -4.6617,-0.3457 -3.427,0.4426 -4.634,-0.3867 -4.634,-0.3867 v 10.9356 c 0,0 0.9949,0.8261 4.4231,0.3859 3.4238,-0.4426 4.8726,0.1316 4.8726,0.1316 z M 19.1328,18.4047 c 0,0 -1.2098,0.8273 -4.6348,0.3867 -3.4265,-0.4422 -4.66128,0.3488 -4.66128,0.3488 v 10.7157 c 0,0 1.44528,-0.5743 4.87348,-0.1329 3.4277,0.4434 4.4226,-0.3828 4.4226,-0.3828 z m 10.9707,10.9687 v 1.6094 c 0,0 -2.1023,-0.9277 -5.7058,-0.416 -3.4219,0.4902 -4.8469,-0.4492 -4.8469,-0.4492 0,0 -1.427,0.9394 -4.8496,0.4492 -3.6028,-0.5117 -5.70901,0.416 -5.70901,0.416 V 29.3734 H 8.03516 V 17.1781 h 9.95114 c 0,0 0.4793,-0.6101 1.5645,-0.6101 1.082,0 1.5586,0.6101 1.5586,0.6101 h 9.957 v 12.1953 h -0.9629" /><path
       inkscape:connector-curvature="0"
       id="path331"
       style="fill:#100f0d;fill-opacity:1;fill-rule:nonzero;stroke:none;stroke-width:0.1"
       d="m 22.3594,26.3727 c -0.0176,-0.0247 -0.0656,-0.0266 -0.0821,-0.0071 -0.0476,0.1809 -0.1628,0.4258 -0.5136,0.4258 -0.3328,0 -0.6707,-0.2625 -0.6707,-0.8555 0,-0.6191 0.3504,-0.9226 0.6902,-0.9226 0.332,0 0.4773,0.2449 0.5508,0.4324 0.0215,0.0273 0.0664,0.0156 0.0781,-0.0137 -0.0168,-0.1933 -0.0898,-0.3836 -0.1269,-0.4414 -0.0313,-0.0047 -0.0606,-0.0144 -0.0899,-0.0215 -0.0586,-0.0234 -0.2422,-0.0722 -0.4121,-0.0722 -0.2578,0 -0.4863,0.0597 -0.6758,0.1933 -0.2136,0.1536 -0.375,0.42 -0.375,0.8028 0,0.3371 0.1387,0.6015 0.3352,0.7695 0.1941,0.1602 0.4617,0.2453 0.7254,0.2453 0.1504,0 0.3347,-0.0293 0.4558,-0.0656 0.0325,-0.0067 0.0508,-0.0098 0.0735,-0.0137 0.0066,-0.0722 0.0117,-0.2371 0.0371,-0.4558" /><path
       inkscape:connector-curvature="0"
       id="path333"
       style="fill:#100f0d;fill-opacity:1;fill-rule:nonzero;stroke:none;stroke-width:0.1"
       d="m 22.877,26.4691 c 0,0.3274 -0.0235,0.3372 -0.1692,0.3594 l -0.0476,0.0039 c -0.0188,0.0196 -0.0157,0.0774 0.0109,0.0871 0.0523,-0.0019 0.1148,-0.005 0.1844,-0.005 0.0625,-0.0047 0.1328,-0.0047 0.1972,-0.0047 h 0.5176 c 0.1934,0 0.3684,0.0047 0.4043,0.0097 0.0125,-0.0488 0.0313,-0.2922 0.0488,-0.4218 -0.0105,-0.0286 -0.0742,-0.0332 -0.0937,-0.0129 -0.0488,0.1777 -0.0938,0.2519 -0.1863,0.2793 -0.0715,0.0175 -0.1606,0.0254 -0.2395,0.0254 h -0.1562 c -0.127,0 -0.127,-0.0079 -0.127,-0.1817 v -0.5535 c 0,-0.0793 0.0051,-0.082 0.0703,-0.082 h 0.0977 c 0.2597,0 0.3105,0.0027 0.332,0.1367 l 0.0227,0.1043 c 0.0203,0.0195 0.0789,0.0195 0.0925,-0.0028 -0.0039,-0.0839 -0.0097,-0.1906 -0.0097,-0.3078 0,-0.116 0.0058,-0.2246 0.0097,-0.3183 -0.0136,-0.0223 -0.0722,-0.0223 -0.0925,-0.0078 l -0.0227,0.123 c -0.0215,0.127 -0.0723,0.1367 -0.332,0.1367 H 23.291 c -0.0652,0 -0.0703,-0.0097 -0.0703,-0.084 v -0.3515 c 0,-0.157 0.0059,-0.2676 0.0508,-0.3184 0.0371,-0.0449 0.0422,-0.0691 0.2922,-0.0691 0.3777,-0.0051 0.3992,0.0867 0.5015,0.332 0.0246,0.0215 0.0793,0.0145 0.0969,-0.0187 -0.0176,-0.1309 -0.0851,-0.3602 -0.1269,-0.4442 -0.0657,0.0047 -0.1164,0.0047 -0.2422,0.0047 -0.1231,0.0051 -0.2266,0.0051 -0.4043,0.0051 h -0.336 c -0.1297,0 -0.3125,-0.0051 -0.4453,-0.0098 -0.0246,0.0125 -0.0273,0.0672 -0.0058,0.0887 l 0.1062,0.0129 c 0.1457,0.0144 0.1692,0.0242 0.1692,0.3515 v 1.1336" /><path
       inkscape:connector-curvature="0"
       id="path335"
       style="fill:#100f0d;fill-opacity:1;fill-rule:nonzero;stroke:none;stroke-width:0.1"
       d="m 24.6133,25.3355 c 0,-0.3273 -0.0235,-0.3371 -0.1582,-0.3515 l -0.0606,-0.0129 c -0.0207,-0.0215 -0.0175,-0.0762 0.0059,-0.0887 0.1238,0.0047 0.2512,0.0098 0.3574,0.0098 0.0527,0 0.1113,-0.0051 0.1785,-0.0098 0.0715,0 0.093,-0.0097 0.1789,-0.0097 0.2559,0 0.4512,0.039 0.6493,0.1453 0.3515,0.1972 0.507,0.5468 0.507,0.8847 0,0.4532 -0.2383,0.7825 -0.5781,0.9161 -0.2032,0.0792 -0.3516,0.1007 -0.6172,0.1007 -0.2782,0 -0.4512,-0.0097 -0.6543,-0.0246 -0.0215,-0.0164 -0.0215,-0.0691 -0.0031,-0.0859 l 0.0597,-0.0098 c 0.1348,-0.0176 0.1348,-0.0508 0.1348,-0.3445 z m 0.3262,1.1934 c 0,0.1445 0.0039,0.2078 0.0253,0.2274 0.0176,0.0175 0.0118,0.0402 0.1282,0.0402 0.4722,0 0.7976,-0.2922 0.7976,-0.8957 0,-0.5195 -0.2304,-0.9051 -0.7297,-0.9051 -0.2976,0 -0.2214,0.1609 -0.2214,0.4578 v 1.0754" /><path
       inkscape:connector-curvature="0"
       id="path337"
       style="fill:#100f0d;fill-opacity:1;fill-rule:nonzero;stroke:none;stroke-width:0.1"
       d="m 27.5371,26.9625 c -0.582,0 -0.9922,-0.4629 -0.9922,-1.0871 0,-0.5469 0.3614,-1.0313 0.9883,-1.0313 0.5606,0 0.9773,0.4485 0.9773,1.0539 0,0.5567 -0.332,1.0645 -0.9734,1.0645 z M 27.5,26.8402 c 0.4434,0 0.6301,-0.5379 0.6301,-0.9961 0,-0.6191 -0.2531,-0.8777 -0.5715,-0.8777 -0.4734,0 -0.6356,0.5762 -0.6356,0.9988 0,0.6504 0.3028,0.875 0.577,0.875" /><path
       inkscape:connector-curvature="0"
       id="path339"
       style="fill:#100f0d;fill-opacity:1;fill-rule:nonzero;stroke:none;stroke-width:0.1"
       d="m 21.4883,21.5563 c -0.0528,0.0644 -0.093,0.2742 -0.0899,0.4695 0.0164,0.0273 0.0704,0.0273 0.0899,0.0078 0.0566,-0.1563 0.2187,-0.4824 0.5066,-0.4824 0.2258,0 0.3528,0.1406 0.3528,0.3261 0,0.1758 -0.0789,0.3145 -0.3016,0.4454 l -0.1281,0.0742 c -0.2246,0.1281 -0.4192,0.3136 -0.4192,0.5879 0,0.3019 0.2231,0.5597 0.6555,0.5597 0.1543,0 0.2656,-0.0343 0.4082,-0.0625 0.0293,-0.0695 0.0625,-0.2695 0.0625,-0.4121 -0.0176,-0.0273 -0.0715,-0.0324 -0.0969,-0.0097 -0.0426,0.157 -0.1472,0.3632 -0.4004,0.3632 -0.2398,0 -0.3386,-0.1582 -0.3386,-0.3222 0,-0.1262 0.0859,-0.2668 0.2851,-0.3711 l 0.1848,-0.1035 c 0.1914,-0.1016 0.4058,-0.2922 0.4058,-0.6008 0,-0.3496 -0.2593,-0.5977 -0.689,-0.5977 -0.2727,0 -0.427,0.091 -0.4875,0.1282" /><path
       inkscape:connector-curvature="0"
       id="path341"
       style="fill:#100f0d;fill-opacity:1;fill-rule:nonzero;stroke:none;stroke-width:0.1"
       d="m 23.2344,23.0375 c 0,0.2785 -0.0039,0.3242 -0.1297,0.341 l -0.1035,0.0145 c -0.0188,0.0195 -0.0188,0.0722 0.0047,0.084 0.2058,0.0246 0.3855,0.0273 0.6562,0.0273 0.2781,0 0.4871,-0.0391 0.6211,-0.123 0.1531,-0.0946 0.25,-0.2559 0.25,-0.4579 0,-0.466 -0.4285,-0.591 -0.6641,-0.591 -0.0253,0 -0.0488,0 -0.0742,0.002 -0.0207,0.0176 -0.0222,0.0578 -0.0117,0.0773 0.2727,0.0528 0.3711,0.2547 0.3711,0.5039 0,0.2508 -0.1516,0.4657 -0.4258,0.4657 -0.1484,0 -0.1484,-0.0079 -0.1484,-0.1258 v -1.3379 c 0,-0.3223 0.0234,-0.3352 0.164,-0.3496 l 0.1094,-0.0117 c 0.0176,-0.0227 0.0156,-0.0793 -0.0058,-0.0872 -0.1758,0.0051 -0.3086,0.0079 -0.4395,0.0079 -0.1269,0 -0.2605,-0.0028 -0.3855,-0.0079 -0.0215,0.0079 -0.0247,0.0645 -0.0024,0.0872 l 0.0481,0.0066 c 0.1386,0.0195 0.166,0.0324 0.166,0.3547 v 1.1199" /><path
       inkscape:connector-curvature="0"
       id="path343"
       style="fill:#100f0d;fill-opacity:1;fill-rule:nonzero;stroke:none;stroke-width:0.1"
       d="m 24.9863,21.9176 c 0,-0.3223 -0.0261,-0.3352 -0.166,-0.3496 l -0.1094,-0.0117 c -0.0195,-0.0227 -0.0175,-0.0793 0.0079,-0.0872 0.1296,0.0051 0.3105,0.0079 0.4421,0.0079 H 25.5 c 0.177,0 0.3254,0 0.4492,-0.0028 0.1231,0 0.1836,-0.0031 0.2461,-0.0051 0.0469,0.0821 0.1082,0.3137 0.127,0.4434 -0.0188,0.0293 -0.0696,0.0363 -0.0965,0.0148 -0.1008,-0.248 -0.132,-0.332 -0.5102,-0.3261 -0.2468,0 -0.3008,0.0222 -0.3328,0.0652 -0.0449,0.0527 -0.0527,0.1594 -0.0527,0.3184 v 0.3398 c 0,0.0801 0.0058,0.084 0.0703,0.084 h 0.1426 c 0.2597,0 0.3117,-0.0039 0.332,-0.1348 l 0.0176,-0.1218 c 0.0273,-0.0227 0.0832,-0.0227 0.0969,0.0019 0,0.0965 -0.0082,0.2051 -0.0082,0.325 0,0.1086 0.0082,0.2199 0.0082,0.3008 -0.0137,0.0273 -0.0696,0.0273 -0.0969,0.0058 L 25.875,22.684 c -0.0203,-0.1367 -0.0723,-0.1367 -0.332,-0.1367 h -0.1426 c -0.0645,0 -0.0703,0 -0.0703,0.0793 v 0.5664 c 0,0.1758 0,0.1804 0.1269,0.1804 h 0.2012 c 0.0789,0 0.1699,-0.0046 0.2344,-0.0242 0.0969,-0.0246 0.1418,-0.1015 0.1894,-0.2793 0.0266,-0.0226 0.084,-0.0129 0.0938,0.0117 -0.0188,0.1309 -0.0352,0.3711 -0.0481,0.4227 -0.0386,-0.0047 -0.2078,-0.0078 -0.4011,-0.0078 h -0.5657 c -0.0632,0 -0.1336,0 -0.1961,0.0031 -0.0683,0 -0.132,0.002 -0.1843,0.0047 -0.0254,-0.0125 -0.0285,-0.0664 -0.0102,-0.0898 l 0.05,-0.004 c 0.1399,-0.0195 0.166,-0.032 0.166,-0.3535 v -1.1394" /><path
       inkscape:connector-curvature="0"
       id="path345"
       style="fill:#100f0d;fill-opacity:1;fill-rule:nonzero;stroke:none;stroke-width:0.1"
       d="m 26.7012,21.5563 c -0.0559,0.0644 -0.0938,0.2742 -0.0867,0.4695 0.0156,0.0273 0.064,0.0273 0.0886,0.0078 0.0574,-0.1563 0.2149,-0.4824 0.5071,-0.4824 0.2214,0 0.3511,0.1406 0.3511,0.3261 0,0.1758 -0.0808,0.3145 -0.3008,0.4454 l -0.1289,0.0742 c -0.2222,0.1281 -0.4207,0.3136 -0.4207,0.5879 0,0.3019 0.2215,0.5597 0.6543,0.5597 0.1536,0 0.2703,-0.0343 0.4075,-0.0625 0.0332,-0.0695 0.0625,-0.2695 0.0625,-0.4121 -0.0137,-0.0273 -0.0676,-0.0324 -0.095,-0.0097 -0.0429,0.157 -0.1496,0.3632 -0.4011,0.3632 -0.2395,0 -0.3379,-0.1582 -0.3379,-0.3222 0,-0.1262 0.0886,-0.2668 0.2859,-0.3711 l 0.1856,-0.1035 c 0.1894,-0.1016 0.4043,-0.2922 0.4043,-0.6008 0,-0.3496 -0.2579,-0.5977 -0.6895,-0.5977 -0.2742,0 -0.427,0.091 -0.4863,0.1282" /><path
       inkscape:connector-curvature="0"
       id="path347"
       style="fill:#100f0d;fill-opacity:1;fill-rule:nonzero;stroke:none;stroke-width:0.1"
       d="m 36.4277,30.6891 c 0,-7.1848 -2.2136,-12.884 -5.3808,-17.3684 0.0027,0 0,0 0,0 0,0 -0.6133,0.2344 -1.5696,0.2344 -2.032,0 -2.6394,-1.1934 -5.0652,-1.1934 -1.4695,0 -2.0945,0.6504 -3.3008,0.9883 v 2.9238 c 0,0 -0.3593,-0.5097 -1.5578,-0.5097 -1.2051,0 -1.5601,0.5117 -1.5601,0.5117 v -2.918 c -1.2043,-0.3406 -1.8293,-0.991 -3.3,-0.991 -2.4239,0 -3.0313,1.1934 -5.06449,1.1934 -0.9668,0 -1.58282,-0.2344 -1.58282,-0.2344 0,0 -0.00898,-0.0051 0,0 C 4.87695,17.807 2.6668,23.5016 2.6668,30.6891 L 2.66602,46.0648 H 19.5488 36.4309 Z M 26.3281,7.99648 C 25.8254,7.55898 25.5945,7.42031 25.1289,7.3207 24.8945,7.275 24.4082,7.2543 24.4082,7.2543 c -1.9883,0 -2.4309,1.19258 -4.8574,1.19258 -2.4278,0 -2.8672,-1.19258 -4.8574,-1.19258 0,0 -0.4864,0.0207 -0.7188,0.0664 -0.4687,0.09961 -0.6973,0.23828 -1.2031,0.67578 -0.9817,0.85079 -1.8313,1.74024 -2.7227,2.76952 1.8223,-0.0019 2.2793,-1.10428 4.6446,-1.10428 1.9902,0 2.4296,1.19338 4.8574,1.19338 2.4265,0 2.8691,-1.19338 4.8574,-1.19338 2.3672,0 2.8137,1.10238 4.6445,1.10428 C 28.1602,9.73672 27.3098,8.84727 26.3281,7.99648 Z M 19.5488,3.11719 c -0.9687,0.54883 -1.9035,1.13086 -2.9035,1.82031 0.7805,0.3457 1.4621,0.86914 2.9055,0.86914 1.4336,0 2.1238,-0.52344 2.9023,-0.86914 C 21.457,4.25 20.5117,3.66406 19.5488,3.11719 Z m 0,45.61371 H 0 L 0.003125,30.9625 C 0.003125,14.018 10.7664,4.94922 19.5488,0 c 8.7801,4.94922 19.545,14.018 19.545,30.9625 l 0.0019,17.7684 H 19.5488" /><path
       inkscape:connector-curvature="0"
       id="path349"
       style="fill:#100f0d;fill-opacity:1;fill-rule:nonzero;stroke:none;stroke-width:0.1"
       d="m 21.1023,34.1109 h 6.7297 l 2.2696,-1.3125 v 5.3594 L 27.832,36.8441 h -6.7297 l 0.0051,-0.0046 v 5.207 l 1.3203,2.2832 h -5.7558 l 1.3191,-2.2832 v -5.2024 h -6.7293 l -2.26951,1.3137 v -5.3594 l 2.26951,1.3125 h 6.7293 v -2.7316 c 0,0 0.9055,-0.1016 1.5586,-0.4676 0.6516,0.366 1.5578,0.4676 1.5578,0.4676 v 2.7316 h -0.0051" /></g></svg>