<?xml version="1.0" encoding="UTF-8" standalone="no"?>
<!-- Created with Inkscape (http://www.inkscape.org/) -->

<svg
   version="1.1"
   id="svg227"
   width="33.883293"
   height="30.052528"
   viewBox="0 0 33.883293 30.052529"
   sodipodi:docname="background.svg"
   inkscape:version="1.2.1 (9c6d41e410, 2022-07-14)"
   xmlns:inkscape="http://www.inkscape.org/namespaces/inkscape"
   xmlns:sodipodi="http://sodipodi.sourceforge.net/DTD/sodipodi-0.dtd"
   xmlns="http://www.w3.org/2000/svg"
   xmlns:svg="http://www.w3.org/2000/svg">
  <defs
     id="defs231">
    <clipPath
       clipPathUnits="userSpaceOnUse"
       id="clipPath253">
      <path
         d="M 285.895,221.027 H 363 V 273 h -77.105 z"
         id="path251" />
    </clipPath>
    <clipPath
       clipPathUnits="userSpaceOnUse"
       id="clipPath263">
      <path
         d="M 0,0 H 363 V 273 H 0 Z"
         id="path261" />
    </clipPath>
    <clipPath
       clipPathUnits="userSpaceOnUse"
       id="clipPath277">
      <path
         d="m 333.625,245.141 h 21.934 v 17.863 h -21.934 z"
         id="path275" />
    </clipPath>
    <clipPath
       clipPathUnits="userSpaceOnUse"
       id="clipPath287">
      <path
         d="M 0,0 H 363 V 273 H 0 Z"
         id="path285" />
    </clipPath>
  </defs>
  <sodipodi:namedview
     id="namedview229"
     pagecolor="#ffffff"
     bordercolor="#000000"
     borderopacity="0.25"
     inkscape:showpageshadow="2"
     inkscape:pageopacity="0.0"
     inkscape:pagecheckerboard="0"
     inkscape:deskcolor="#d1d1d1"
     showgrid="false"
     inkscape:zoom="16"
     inkscape:cx="19.84375"
     inkscape:cy="26.625"
     inkscape:window-width="1920"
     inkscape:window-height="1137"
     inkscape:window-x="-8"
     inkscape:window-y="-8"
     inkscape:window-maximized="1"
     inkscape:current-layer="g271">
    <inkscape:page
       x="0"
       y="0"
       id="page233"
       width="33.883293"
       height="30.052528" />
  </sodipodi:namedview>
  <g
     id="g235"
     inkscape:groupmode="layer"
     inkscape:label="Page 1"
     transform="matrix(1.3333333,0,0,1.3333333,-237.05755,-216.63982)">
    <g
       id="g271"
       transform="translate(-157.72325,-102.80993)">
      <g
         id="g273"
         clip-path="url(#clipPath277)"
         transform="translate(3.7123107,21.743534)">
        <g
           id="g279">
          <g
             id="g281">
            <g
               id="g283"
               clip-path="url(#clipPath287)">
              <g
                 id="g289">
                <path
                   d="m 335.031,259.512 c -0.461,0 -0.781,-0.297 -0.781,-0.789 v -1.25 h 0.277 v 1.25 c 0,0.386 0.243,0.531 0.504,0.531 0.262,0 0.516,-0.149 0.516,-0.531 v -1.25 h 0.273 v 1.25 c 0,0.476 -0.34,0.789 -0.789,0.789"
                   style="fill:#626665;fill-opacity:1;fill-rule:nonzero;stroke:none"
                   id="path291" />
                <path
                   d="m 337.723,259.48 -1.055,-1.457 c -0.012,-0.015 -0.035,-0.054 -0.035,-0.054 0,0 0.004,0.047 0.004,0.066 v 1.445 h -0.274 v -2.007 h 0.231 l 1.043,1.425 c 0.015,0.024 0.035,0.059 0.035,0.059 0,0 -0.008,-0.039 -0.008,-0.066 v -1.418 h 0.277 v 2.007 z"
                   style="fill:#626665;fill-opacity:1;fill-rule:nonzero;stroke:none"
                   id="path293" />
                <path
                   d="m 338.496,257.473 h 0.277 v 2.008 h -0.277 z"
                   style="fill:#626665;fill-opacity:1;fill-rule:nonzero;stroke:none"
                   id="path295" />
                <path
                   d="m 340.066,259.48 h -0.168 l -0.707,-2.007 h 0.266 l 0.508,1.449 c 0.008,0.023 0.015,0.07 0.015,0.07 0,0 0.012,-0.047 0.02,-0.07 l 0.512,-1.449 h 0.261 z"
                   style="fill:#626665;fill-opacity:1;fill-rule:nonzero;stroke:none"
                   id="path297" />
                <path
                   d="m 341.191,259.48 v -2.007 h 1.122 v 0.257 h -0.848 v 0.641 h 0.828 v 0.258 h -0.828 v 0.594 h 0.898 v 0.257 z"
                   style="fill:#626665;fill-opacity:1;fill-rule:nonzero;stroke:none"
                   id="path299" />
                <path
                   d="m 343.453,257.73 h -0.324 v 0.692 h 0.32 c 0.246,0 0.391,-0.156 0.391,-0.371 0,-0.137 -0.125,-0.321 -0.387,-0.321 m 0.488,1.75 -0.812,-0.937 v 0.937 h -0.274 v -2.007 h 0.649 c 0.375,0 0.621,0.265 0.621,0.59 0,0.324 -0.273,0.574 -0.57,0.574 l 0.738,0.843 z"
                   style="fill:#626665;fill-opacity:1;fill-rule:nonzero;stroke:none"
                   id="path301" />
                <path
                   d="m 345.184,259.512 c -0.204,0 -0.407,-0.051 -0.59,-0.203 l 0.156,-0.211 c 0.109,0.097 0.281,0.148 0.418,0.148 0.203,0 0.344,-0.09 0.344,-0.281 0,-0.168 -0.157,-0.262 -0.336,-0.356 -0.285,-0.144 -0.578,-0.269 -0.578,-0.652 0,-0.297 0.222,-0.519 0.582,-0.519 0.199,0 0.386,0.062 0.543,0.171 l -0.149,0.227 c -0.125,-0.094 -0.23,-0.129 -0.398,-0.129 -0.156,0 -0.289,0.082 -0.289,0.231 0,0.218 0.195,0.292 0.441,0.417 0.227,0.114 0.469,0.258 0.469,0.594 0,0.36 -0.277,0.563 -0.613,0.563"
                   style="fill:#626665;fill-opacity:1;fill-rule:nonzero;stroke:none"
                   id="path303" />
                <path
                   d="m 346.25,257.473 h 0.273 v 2.008 h -0.273 z"
                   style="fill:#626665;fill-opacity:1;fill-rule:nonzero;stroke:none"
                   id="path305" />
                <path
                   d="m 347.664,257.73 v 1.75 h -0.273 v -1.75 h -0.411 v -0.257 h 1.11 v 0.257 z"
                   style="fill:#626665;fill-opacity:1;fill-rule:nonzero;stroke:none"
                   id="path307" />
                <path
                   d="m 349.195,257.313 h -0.265 l 0.254,-0.407 h 0.265 z m -0.652,2.167 v -2.007 h 1.125 v 0.257 h -0.848 v 0.641 h 0.828 v 0.258 h -0.828 v 0.594 h 0.899 v 0.257 z"
                   style="fill:#626665;fill-opacity:1;fill-rule:nonzero;stroke:none"
                   id="path309" />
                <path
                   d="m 351.828,257.719 h -0.234 v 1.515 h 0.179 c 0.594,0 0.844,-0.386 0.844,-0.761 0,-0.41 -0.308,-0.754 -0.789,-0.754 m -0.019,1.761 h -0.489 v -2.007 h 0.512 c 0.684,0 1.074,0.449 1.074,0.996 0,0.558 -0.41,1.011 -1.097,1.011"
                   style="fill:#626665;fill-opacity:1;fill-rule:nonzero;stroke:none"
                   id="path311" />
                <path
                   d="m 354.148,259.512 c -0.46,0 -0.785,-0.297 -0.785,-0.789 v -1.25 h 0.278 v 1.25 c 0,0.386 0.242,0.531 0.507,0.531 0.262,0 0.516,-0.149 0.516,-0.531 v -1.25 h 0.274 v 1.25 c 0,0.476 -0.34,0.789 -0.79,0.789"
                   style="fill:#626665;fill-opacity:1;fill-rule:nonzero;stroke:none"
                   id="path313" />
                <g
                   id="g315"
                   transform="scale(1,-1)">
                  <path
                     d="m 334.043,-255.988 h 21.102"
                     style="fill:none;stroke:#626665;stroke-width:0.154032;stroke-linecap:butt;stroke-linejoin:miter;stroke-miterlimit:4;stroke-dasharray:none;stroke-opacity:1"
                     id="path317" />
                </g>
                <path
                   d="m 334.258,262.973 v -2.012 h 0.277 v 1.75 h 0.762 v 0.262 z"
                   style="fill:#626665;fill-opacity:1;fill-rule:nonzero;stroke:none"
                   id="path319" />
                <path
                   d="m 336.598,263.004 c -0.461,0 -0.782,-0.297 -0.782,-0.793 v -1.25 h 0.278 v 1.25 c 0,0.387 0.242,0.535 0.504,0.535 0.261,0 0.515,-0.148 0.515,-0.535 v -1.25 h 0.274 v 1.25 c 0,0.48 -0.34,0.793 -0.789,0.793"
                   style="fill:#626665;fill-opacity:1;fill-rule:nonzero;stroke:none"
                   id="path321" />
                <path
                   d="m 339.309,262.973 -0.45,-0.688 c -0.031,-0.051 -0.082,-0.14 -0.082,-0.14 0,0 -0.054,0.089 -0.093,0.148 l -0.446,0.68 h -0.316 l 0.695,-1.063 -0.617,-0.949 h 0.34 l 0.383,0.598 c 0.031,0.046 0.062,0.101 0.062,0.101 0,0 0.031,-0.055 0.067,-0.109 l 0.39,-0.59 h 0.317 l -0.614,0.937 0.696,1.075 z"
                   style="fill:#626665;fill-opacity:1;fill-rule:nonzero;stroke:none"
                   id="path323" />
                <path
                   d="m 340.184,262.973 v -2.012 h 1.125 v 0.262 h -0.848 v 0.64 h 0.828 v 0.258 h -0.828 v 0.59 h 0.898 v 0.262 z"
                   style="fill:#626665;fill-opacity:1;fill-rule:nonzero;stroke:none"
                   id="path325" />
                <path
                   d="m 343.75,262.973 v -1.481 c 0,-0.035 0.004,-0.074 0.004,-0.074 0,0 -0.016,0.031 -0.027,0.047 l -0.629,0.848 h -0.11 l -0.636,-0.829 c -0.012,-0.011 -0.028,-0.043 -0.028,-0.043 0,0 0.008,0.039 0.008,0.075 v 1.457 h -0.277 v -2.012 h 0.234 l 0.758,0.984 0.734,-0.984 h 0.242 v 2.012 z"
                   style="fill:#626665;fill-opacity:1;fill-rule:nonzero;stroke:none"
                   id="path327" />
                <path
                   d="m 345.387,262.113 h -0.324 v 0.598 h 0.296 c 0.246,0 0.364,-0.121 0.364,-0.309 0,-0.172 -0.133,-0.289 -0.336,-0.289 m -0.114,-0.89 h -0.21 v 0.632 h 0.183 c 0.301,0 0.371,-0.179 0.371,-0.347 0,-0.18 -0.121,-0.285 -0.344,-0.285 m 0.118,1.75 h -0.602 v -2.012 h 0.531 c 0.34,0 0.582,0.211 0.582,0.523 0,0.231 -0.101,0.379 -0.23,0.465 0.156,0.047 0.336,0.231 0.336,0.477 0,0.25 -0.176,0.547 -0.617,0.547"
                   style="fill:#626665;fill-opacity:1;fill-rule:nonzero;stroke:none"
                   id="path329" />
                <path
                   d="m 347.492,261.199 c -0.433,0 -0.734,0.321 -0.734,0.762 0,0.445 0.347,0.773 0.746,0.773 0.391,0 0.738,-0.296 0.738,-0.777 0,-0.437 -0.308,-0.758 -0.75,-0.758 m 0.012,1.805 c -0.574,0 -1.031,-0.438 -1.031,-1.043 0,-0.586 0.437,-1.031 1.015,-1.031 0.621,0 1.039,0.453 1.039,1.035 0,0.586 -0.457,1.039 -1.023,1.039"
                   style="fill:#626665;fill-opacity:1;fill-rule:nonzero;stroke:none"
                   id="path331" />
                <path
                   d="m 349.855,263.004 c -0.46,0 -0.785,-0.297 -0.785,-0.793 v -1.25 h 0.278 v 1.25 c 0,0.387 0.242,0.535 0.507,0.535 0.262,0 0.516,-0.148 0.516,-0.535 v -1.25 h 0.27 v 1.25 c 0,0.48 -0.336,0.793 -0.786,0.793"
                   style="fill:#626665;fill-opacity:1;fill-rule:nonzero;stroke:none"
                   id="path333" />
                <path
                   d="m 351.867,261.223 h -0.324 v 0.687 h 0.316 c 0.25,0 0.391,-0.152 0.391,-0.367 0,-0.137 -0.121,-0.32 -0.383,-0.32 m 0.485,1.75 -0.809,-0.942 v 0.942 h -0.277 v -2.012 h 0.648 c 0.375,0 0.625,0.269 0.625,0.594 0,0.32 -0.273,0.574 -0.574,0.574 l 0.742,0.844 z"
                   style="fill:#626665;fill-opacity:1;fill-rule:nonzero;stroke:none"
                   id="path335" />
                <path
                   d="m 354.051,263.004 c -0.508,0 -1.02,-0.414 -1.02,-1.039 0,-0.621 0.469,-1.035 1.024,-1.035 0.324,0 0.547,0.105 0.738,0.273 l -0.168,0.203 c -0.172,-0.144 -0.344,-0.207 -0.578,-0.207 -0.402,0 -0.727,0.305 -0.727,0.77 0,0.406 0.332,0.765 0.739,0.765 0.289,0 0.519,-0.164 0.593,-0.406 h -0.605 v -0.258 h 0.922 c 0,0.547 -0.434,0.934 -0.918,0.934"
                   style="fill:#626665;fill-opacity:1;fill-rule:nonzero;stroke:none"
                   id="path337" />
                <path
                   d="m 349.633,245.566 c -0.297,0 -0.555,-0.168 -0.684,-0.425 h -0.09 v 8.597 c 0,0.422 0.344,0.766 0.774,0.766 0.422,0 0.765,-0.344 0.765,-0.766 v -8.597 h -0.085 c -0.129,0.257 -0.387,0.425 -0.68,0.425"
                   style="fill:#00aae6;fill-opacity:1;fill-rule:nonzero;stroke:none"
                   id="path339" />
                <path
                   d="m 344.105,247.469 c -0.296,0 -0.55,-0.168 -0.679,-0.426 h -0.09 v 6.695 c 0,0.422 0.344,0.766 0.769,0.766 0.422,0 0.766,-0.344 0.766,-0.766 v -6.695 h -0.086 c -0.129,0.258 -0.383,0.426 -0.68,0.426"
                   style="fill:#ee2d27;fill-opacity:1;fill-rule:nonzero;stroke:none"
                   id="path341" />
                <path
                   d="m 343.336,245.922 c 0,-0.422 0.344,-0.77 0.769,-0.77 0.426,0 0.77,0.348 0.77,0.77 0,0.426 -0.344,0.769 -0.77,0.769 -0.425,0 -0.769,-0.343 -0.769,-0.769"
                   style="fill:#ee2d27;fill-opacity:1;fill-rule:nonzero;stroke:none"
                   id="path343" />
                <path
                   d="m 335.02,254.504 c -0.426,0 -0.77,-0.344 -0.77,-0.766 v -5.929 c 0,-0.422 0.344,-0.766 0.77,-0.766 0.421,0 0.765,0.344 0.765,0.766 v 6.695 z"
                   style="fill:#ee2d27;fill-opacity:1;fill-rule:nonzero;stroke:none"
                   id="path345" />
                <path
                   d="m 336.203,254.504 h -0.004 v -6.695 c 0,-0.422 0.344,-0.766 0.77,-0.766 0.422,0 0.765,0.344 0.765,0.766 v 6.695 h 0.004 c -0.363,0 -0.449,-0.422 -0.449,-0.832 0,0.426 -0.344,0.832 -0.766,0.832 h -0.32"
                   style="fill:#ee2d27;fill-opacity:1;fill-rule:nonzero;stroke:none"
                   id="path347" />
                <path
                   d="m 341.516,247.043 c 0.422,0 0.765,0.344 0.765,0.766 v 5.929 c 0,0.422 -0.343,0.766 -0.765,0.766 -0.422,0 -0.77,-0.344 -0.77,-0.766 v -6.695 z"
                   style="fill:#ee2d27;fill-opacity:1;fill-rule:nonzero;stroke:none"
                   id="path349" />
                <path
                   d="m 340.332,247.043 v 6.695 c 0,0.422 -0.344,0.766 -0.766,0.766 -0.425,0 -0.769,-0.344 -0.769,-0.766 v -6.695 c 0.363,0 0.449,0.422 0.449,0.832 h -0.004 c 0,-0.426 0.344,-0.832 0.77,-0.832 h 0.32"
                   style="fill:#ee2d27;fill-opacity:1;fill-rule:nonzero;stroke:none"
                   id="path351" />
                <path
                   d="m 352.227,254.504 c -0.426,0 -0.77,-0.344 -0.77,-0.766 v -5.929 c 0,-0.422 0.344,-0.766 0.77,-0.766 0.421,0 0.765,0.344 0.765,0.766 v 6.695 z"
                   style="fill:#00aae6;fill-opacity:1;fill-rule:nonzero;stroke:none"
                   id="path353" />
                <path
                   d="m 353.41,254.504 v -6.695 c 0,-0.422 0.34,-0.766 0.766,-0.766 0.422,0 0.765,0.344 0.765,0.766 v 6.695 h 0.004 c -0.363,0 -0.449,-0.422 -0.449,-0.832 0,0.426 -0.344,0.832 -0.766,0.832 h -0.32"
                   style="fill:#00aae6;fill-opacity:1;fill-rule:nonzero;stroke:none"
                   id="path355" />
                <path
                   d="m 346.102,253.734 c 0,-0.421 0.343,-0.769 0.769,-0.769 0.426,0 0.77,0.348 0.77,0.769 0,0.426 -0.344,0.77 -0.77,0.77 -0.426,0 -0.769,-0.344 -0.769,-0.77"
                   style="fill:#00aae6;fill-opacity:1;fill-rule:nonzero;stroke:none"
                   id="path357" />
              </g>
            </g>
          </g>
        </g>
      </g>
    </g>
  </g>
</svg>
