<?xml version="1.0" encoding="UTF-8" standalone="no"?>
<!-- Created with Inkscape (http://www.inkscape.org/) -->

<svg
   xmlns:dc="http://purl.org/dc/elements/1.1/"
   xmlns:cc="http://creativecommons.org/ns#"
   xmlns:rdf="http://www.w3.org/1999/02/22-rdf-syntax-ns#"
   xmlns:svg="http://www.w3.org/2000/svg"
   xmlns="http://www.w3.org/2000/svg"
   xmlns:sodipodi="http://sodipodi.sourceforge.net/DTD/sodipodi-0.dtd"
   xmlns:inkscape="http://www.inkscape.org/namespaces/inkscape"
   id="svg3004"
   version="1.1"
   inkscape:version="0.92.1 r15371"
   width="177.74835"
   height="108.58049"
   xml:space="preserve"
   sodipodi:docname="UR1.svg"><metadata
     id="metadata3010"><rdf:RDF><cc:Work
         rdf:about=""><dc:format>image/svg+xml</dc:format><dc:type
           rdf:resource="http://purl.org/dc/dcmitype/StillImage" /><dc:title /></cc:Work></rdf:RDF></metadata><defs
     id="defs3008" /><sodipodi:namedview
     pagecolor="#ffffff"
     bordercolor="#666666"
     borderopacity="1"
     objecttolerance="10"
     gridtolerance="10"
     guidetolerance="10"
     inkscape:pageopacity="0"
     inkscape:pageshadow="2"
     inkscape:window-width="1916"
     inkscape:window-height="1060"
     id="namedview3006"
     showgrid="false"
     inkscape:zoom="3.8312593"
     inkscape:cx="-22.403751"
     inkscape:cy="91.017526"
     inkscape:window-x="0"
     inkscape:window-y="18"
     inkscape:window-maximized="0"
     inkscape:current-layer="g3012"
     showguides="true"
     inkscape:guide-bbox="true" /><g
     id="g3012"
     inkscape:groupmode="layer"
     inkscape:label="ink_ext_XXXXXX"
     transform="matrix(1.25,0,0,-1.25,-117.71587,108.31947)"><path
       inkscape:connector-curvature="0"
       id="path3016"
       style="opacity:0.6;fill:#000000;fill-opacity:1;fill-rule:nonzero;stroke:none;stroke-width:0.56385845"
       d="m 99.25861,51.000132 h 1.04071 v -5.226685 c 0,-1.787149 0.54315,-2.239815 1.52727,-2.239815 0.9841,0 1.52748,0.452666 1.52748,2.239815 v 5.226685 h 1.04071 v -5.181295 c 0,-2.262538 -0.83741,-3.15631 -2.56819,-3.15631 -1.73078,0 -2.56798,0.893772 -2.56798,3.15631 v 5.181295" /><path
       inkscape:connector-curvature="0"
       id="path3018"
       style="opacity:0.6;fill:#000000;fill-opacity:1;fill-rule:nonzero;stroke:none;stroke-width:0.56385845"
       d="m 113.2185,51.000132 v -8.167996 h -1.42504 l -3.22437,7.081893 h -0.0224 v -7.081893 h -0.92794 v 8.167996 h 1.47088 l 3.17892,-6.991844 h 0.0227 v 6.991844 h 0.92727" /><path
       inkscape:connector-curvature="0"
       id="path3020"
       style="opacity:0.6;fill:#000000;fill-opacity:1;fill-rule:nonzero;stroke:none;stroke-width:0.56385845"
       d="m 116.60097,42.832136 h 1.04072 v 8.167996 h -1.04072 z" /><path
       inkscape:connector-curvature="0"
       id="path3022"
       style="opacity:0.6;fill:#000000;fill-opacity:1;fill-rule:nonzero;stroke:none;stroke-width:0.56385845"
       d="m 123.80804,42.832136 h -1.24449 l -2.36443,8.167996 h 1.13105 l 1.86665,-7.183443 h 0.0224 l 1.91188,7.183443 h 1.06383 L 123.808,42.832136" /><path
       inkscape:connector-curvature="0"
       id="path3024"
       style="opacity:0.6;fill:#000000;fill-opacity:1;fill-rule:nonzero;stroke:none;stroke-width:0.56385845"
       d="m 128.61561,42.832136 v 8.167996 h 4.20842 v -0.905049 h -3.1677 v -2.624591 h 2.94153 v -0.904993 h -2.94153 v -2.828145 h 3.23553 v -0.905218 h -4.27625" /><path
       inkscape:connector-curvature="0"
       id="path3026"
       style="opacity:0.6;fill:#000000;fill-opacity:1;fill-rule:nonzero;stroke:none;stroke-width:0.56385845"
       d="m 136.64795,47.492989 h 1.5616 c 0.74599,0 1.10832,0.644886 1.10832,1.357659 0,0.588104 -0.29405,1.244435 -1.09755,1.244435 h -1.57237 z m 0,-0.905049 v -3.755804 h -1.04072 v 8.167996 h 2.8171 c 1.44793,0 1.95698,-1.018215 1.95698,-2.036261 0,-0.961887 -0.53149,-1.697102 -1.4936,-1.86671 v -0.02267 c 0.93899,-0.146884 1.2786,-0.463886 1.33476,-2.104094 0.0117,-0.350889 0.12444,-1.629494 0.28328,-2.138264 h -1.08588 c -0.29405,0.565381 -0.22644,1.628762 -0.31671,2.715091 -0.0793,0.995324 -0.88284,1.040714 -1.23344,1.040714 h -1.22177" /><path
       inkscape:connector-curvature="0"
       id="path3028"
       style="opacity:0.6;fill:#000000;fill-opacity:1;fill-rule:nonzero;stroke:none;stroke-width:0.56385845"
       d="m 144.08028,45.264396 v -0.237385 c 0,-1.108997 0.70172,-1.459209 1.36893,-1.459209 0.82617,0 1.45983,0.350212 1.45983,1.323263 0,1.810098 -3.66575,1.606376 -3.66575,4.061585 0,1.447706 1.02971,2.217091 2.39859,2.217091 1.49361,0 2.3306,-0.72422 2.26271,-2.387151 h -1.08627 c 0.0114,0.893828 -0.27161,1.482102 -1.25572,1.482102 -0.62199,0 -1.25588,-0.316494 -1.25588,-1.199045 0,-1.798878 3.66576,-1.53877 3.66576,-4.128966 0,-1.720219 -1.18788,-2.274154 -2.53432,-2.274154 -2.40937,-0.0225 -2.40937,1.821545 -2.38692,2.601869 h 1.02904" /><path
       inkscape:connector-curvature="0"
       id="path3030"
       style="opacity:0.6;fill:#000000;fill-opacity:1;fill-rule:nonzero;stroke:none;stroke-width:0.56385845"
       d="m 151.0609,42.832136 h 1.04071 v 8.167996 h -1.04071 z" /><path
       inkscape:connector-curvature="0"
       id="path3032"
       style="opacity:0.6;fill:#000000;fill-opacity:1;fill-rule:nonzero;stroke:none;stroke-width:0.56385845"
       d="m 160.00928,51.000132 v -0.905049 h -2.14943 v -7.262947 h -1.04088 v 7.262947 h -2.14915 v 0.905049 h 5.33946" /><path
       inkscape:connector-curvature="0"
       id="path3034"
       style="opacity:0.6;fill:#000000;fill-opacity:1;fill-rule:nonzero;stroke:none;stroke-width:0.56385845"
       d="m 165.69974,53.45489 -1.48182,-1.595098 h -0.75839 l 1.00706,1.595098 z m -3.25797,-10.622754 v 8.167996 h 4.20864 v -0.905049 h -3.16833 v -2.624591 h 2.94165 v -0.904993 h -2.94165 v -2.828145 h 3.23599 v -0.905218 h -4.2763" /><path
       inkscape:connector-curvature="0"
       id="path3036"
       style="opacity:0.6;fill:#000000;fill-opacity:1;fill-rule:nonzero;stroke:none;stroke-width:0.56385845"
       d="m 174.38824,43.737354 h 0.98393 c 1.44855,0 1.97971,0.542939 1.97971,2.443537 v 1.651711 c 0,1.651485 -0.5086,2.262481 -1.59516,2.262481 h -1.36848 z m -1.04088,7.262778 h 2.51142 c 1.04088,0 1.78743,-0.37333 2.19454,-1.244435 0.32816,-0.69005 0.36256,-2.319093 0.36256,-2.579427 0,-1.742041 -0.15845,-2.748809 -0.49789,-3.292426 -0.4415,-0.700875 -1.26699,-1.051708 -2.69243,-1.051708 h -1.8782 v 8.167996" /><path
       inkscape:connector-curvature="0"
       id="path3038"
       style="opacity:0.6;fill:#000000;fill-opacity:1;fill-rule:nonzero;stroke:none;stroke-width:0.56385845"
       d="m 181.59435,42.832136 v 8.167996 h 4.20807 v -0.905049 h -3.16719 v -2.624591 h 2.94109 v -0.904993 h -2.94109 v -2.828145 h 3.23542 v -0.905218 h -4.2763" /><path
       inkscape:connector-curvature="0"
       id="path3040"
       style="opacity:0.6;fill:#000000;fill-opacity:1;fill-rule:nonzero;stroke:none;stroke-width:0.56385845"
       d="m 119.0965,31.29328 h 1.73561 c 2.89446,0 3.72147,1.48853 3.69373,3.058932 -0.0273,1.763806 -1.07461,2.838689 -3.69373,2.838689 h -1.73561 z m 2.03959,8.212542 c 3.80277,0 6.17295,-2.011621 6.17295,-5.263732 0,-2.177226 -1.12991,-3.802717 -3.14221,-4.602268 1.70939,-1.129917 2.7554,-2.866657 4.18952,-5.209088 0.79955,-1.295115 1.26733,-1.928351 2.56246,-3.720144 h -3.22432 l -2.48035,3.858244 c -2.47985,3.858466 -3.60977,4.298952 -4.98772,4.298952 H 119.0965 V 20.71059 h -2.70009 v 18.795232 h 4.73968" /><path
       inkscape:connector-curvature="0"
       id="path3042"
       style="opacity:0.6;fill:#000000;fill-opacity:1;fill-rule:nonzero;stroke:none;stroke-width:0.56385845"
       d="m 143.65101,37.08078 h -7.9645 v -5.677379 h 7.68894 v -2.425437 h -7.68894 v -5.842345 h 8.21209 V 20.71059 h -10.91353 v 18.795232 h 10.66594 V 37.08078" /><path
       inkscape:connector-curvature="0"
       id="path3044"
       style="opacity:0.6;fill:#000000;fill-opacity:1;fill-rule:nonzero;stroke:none;stroke-width:0.56385845"
       d="m 164.15477,20.71059 h -2.3152 L 149.27308,35.179279 V 20.71059 h -2.53517 v 18.795232 h 2.14841 l 12.73334,-14.550874 v 14.550874 h 2.53511 V 20.71059" /><path
       inkscape:connector-curvature="0"
       id="path3046"
       style="opacity:0.6;fill:#000000;fill-opacity:1;fill-rule:nonzero;stroke:none;stroke-width:0.56385845"
       d="m 185.67725,20.71059 h -2.31521 L 170.79533,35.179279 V 20.71059 h -2.5351 v 18.795232 h 2.14998 l 12.73193,-14.550874 v 14.550874 h 2.53511 V 20.71059" /><path
       inkscape:connector-curvature="0"
       id="path3048"
       style="opacity:0.6;fill:#000000;fill-opacity:1;fill-rule:nonzero;stroke:none;stroke-width:0.56385845"
       d="m 200.47627,37.08078 h -7.9645 v -5.677379 h 7.68934 v -2.425437 h -7.68934 v -5.842345 h 8.21204 V 20.71059 h -10.91235 v 18.795232 h 10.66481 V 37.08078" /><path
       inkscape:connector-curvature="0"
       id="path3050"
       style="opacity:0.6;fill:#000000;fill-opacity:1;fill-rule:nonzero;stroke:none;stroke-width:0.56385845"
       d="m 212.5186,35.372007 c -1.59797,1.515369 -3.1407,1.956983 -4.40825,1.956983 -1.73668,0 -2.97661,-0.909673 -2.97661,-2.232316 0,-3.610667 8.12971,-3.555352 8.12971,-9.535359 0,-2.948805 -2.23231,-5.098515 -5.26305,-5.098515 -2.04004,0 -3.69384,0.551303 -5.26418,1.736289 v 3.417287 c 1.3775,-1.763817 3.11419,-2.728545 4.9597,-2.728545 2.09474,0 3.0595,1.322642 3.0595,2.36997 0,3.885769 -8.12972,4.326932 -8.12972,9.479864 0,3.059384 2.25994,5.016367 5.70456,5.016367 1.43277,0 2.86666,-0.441614 4.18834,-1.323319 v -3.058706" /><path
       inkscape:connector-curvature="0"
       id="path3052"
       style="opacity:0.6;fill:#000000;fill-opacity:1;fill-rule:nonzero;stroke:none;stroke-width:0.56385845"
       d="m 232.46509,41.907464 -0.0141,0.0095 v 0.690106 h -1.16832 l -0.12574,-0.387255 c -0.88639,-1.155232 -3.8675,-4.652903 -8.68285,-6.451329 l 0.39244,-1.177281 c 1.49084,0.581507 2.7708,1.247763 3.87878,1.933866 V 21.113662 h 5.70569 v 20.770684 c 0.003,0.0062 0.0129,0.02008 0.0141,0.02312" /><path
       inkscape:connector-curvature="0"
       id="path3054"
       style="fill:#000000;fill-opacity:1;fill-rule:nonzero;stroke:none;stroke-width:0.56385845"
       d="m 203.83631,48.050871 0.058,-0.0055 8.3e-4,0.004 -0.053,0.01365 z m -0.0322,0.10048 c -0.007,0.130138 -0.10262,0.132112 -0.19396,0.131717 l -0.008,-0.08328 c 0.0451,-0.01365 0.0716,0.02092 0.053,0.06919 0.0338,-0.124669 0.10093,-0.177334 0.18777,-0.205978 0.0181,0.03834 0.0457,0.07821 0.0344,0.108149 -0.0242,-0.0066 -0.0727,-0.01979 -0.0727,-0.01979 z m -0.58584,0.425939 c 0.0113,-0.02616 0.0366,-2.26e-4 0.0637,0.01917 l -0.0834,0.05396 z m -0.42403,-0.409644 c -0.0209,-0.0084 0.0463,0.131492 0.004,0.114971 -0.0829,0.0011 -0.17423,-0.05289 -0.23795,-0.02887 -0.0429,-0.02244 -0.0276,0.153313 -0.0705,0.131041 -0.0891,-0.01652 -0.33606,-0.153934 -0.2278,-0.179702 0.16296,-0.03174 0.28306,-0.02159 0.43361,-0.04827 l 0.40316,2.26e-4 0.084,-0.06186 -0.0908,0.129068 c -0.0395,0.07003 -0.19566,-0.07161 -0.29828,-0.05661 z m 0.29095,0.538316 h 8.3e-4 l -0.0541,0.0051 0.0254,-0.06321 z m 0.0209,0.0055 -0.0197,-0.0055 0.0338,-0.0045 z m 1.48125,2.44224 c -0.106,0.03631 -0.1731,0.154158 -0.15675,0.331492 0.18213,0.0031 0.19171,-0.15461 0.15675,-0.331492 z m -3.59347,-2.0114 c -0.0519,-0.0194 -0.11164,0.01872 -0.15337,0.102397 0.0705,0.05441 0.11785,-0.0176 0.15337,-0.102397 z m 5.48635,-0.94356 c -0.12123,0.134311 -0.17367,0.303919 -0.13984,0.551284 -0.007,-0.101776 -0.0801,-0.138089 -0.14829,-0.07358 l 0.0801,0.139216 c 0.16521,-0.08085 0.32253,-0.174232 0.22047,-0.419567 0,0 0.0913,-0.02357 0.13645,-0.03569 -0.008,-0.06501 -0.0868,-0.111249 -0.14886,-0.161658 l 0.075,-0.07821 c 0.0857,0.13854 0.12123,0.442911 0.12123,0.443587 -0.25204,0.386525 -0.51085,0.735891 -0.7347,1.099524 -0.066,-0.0097 -0.13195,-0.03304 -0.13307,0.02137 l 0.0163,0.141416 -0.10769,0.15196 -0.0598,0.03615 -0.002,-2.26e-4 c -0.0485,0.0051 -0.0767,-0.03152 -0.0959,-0.07533 l -8.3e-4,0.129293 -0.0242,0.026 c 0.006,-0.0029 0.0101,-0.0062 0.0158,-0.009 0.002,-0.0062 0.008,-0.01105 0.008,-0.01697 l 0.0773,-0.04167 0.002,-0.002 v 4.51e-4 l 0.0197,-0.01055 0.04,-0.0068 -0.24358,0.353031 -0.075,0.05199 c -0.0936,0.05441 -0.19511,0.09822 -0.13534,0.240768 l -0.0473,0.06056 -0.009,-0.02797 v 0.03874 l -0.19905,0.257965 c -0.13476,0.164929 -0.25542,0.348859 -0.41105,0.505894 -0.93375,1.090051 -2.04849,1.850809 -3.48746,2.489605 -0.79335,0.321567 -1.64421,0.635637 -2.69919,0.516719 -2.22273,-0.569609 -3.04878,-2.423971 -3.18524,-4.878278 -0.0175,-0.864958 0.72794,-1.854981 1.28842,-2.388053 -0.0463,-0.192896 -0.0936,-0.374402 -0.15845,-0.523091 -0.12461,-0.323317 0.0383,-1.052836 0.50015,-1.552359 1.0437,-0.451087 0.77192,0.591601 0.83226,0.545364 0.22723,0.518693 -0.0119,0.369328 0.20073,0.832763 -0.1342,-0.2905 -0.4088,0.126868 -0.0231,0.415394 0.56724,0.476461 0.15506,0.769385 0.41387,0.812351 0.0773,0.0079 0.10149,0.0645 0.15449,0.112095 0.48097,0.03107 0.9845,0.452158 1.73105,0.366283 0.1872,-0.0061 0.36199,0.15506 0.53735,0.20857 0.12461,0.0048 0.24359,-0.09292 0.34057,-0.108993 0.15393,-0.02515 0.29603,0.0066 0.43925,0.05176 -0.14998,-0.004 -0.26219,-0.02757 -0.42402,-0.0238 -0.10827,0.0088 0.10431,0.184326 0.18608,0.214944 0.0383,0.02864 0.0541,-0.148634 0.0913,-0.11937 0.066,-0.01077 0.14097,0.04692 0.22498,0.07799 0.0383,0.02864 0,-0.122245 0.0186,-0.107698 0.10657,0.02464 0.2278,0.17818 0.27968,0.120046 l 0.10882,-0.111701 0.0761,-0.03547 0.0637,0.01985 0.4945,0.08785 0.002,0.01393 c -0.0868,0.01252 -0.1607,0.05193 -0.21596,0.170003 0.0254,-0.04494 0.007,-0.0839 -0.0383,-0.07843 l -0.008,0.08396 c 0.088,0.01675 0.17987,0.03259 0.20919,-0.0958 0,0 0.0439,0.02267 0.0665,0.03321 0.0163,-0.02775 -0.002,-0.07268 -0.0135,-0.11294 l 0.0541,-0.0048 c -0.006,0.08255 -0.0806,0.212518 -0.0818,0.212969 l -0.60332,0.219172 c -0.0231,-0.02402 -0.0429,-0.05441 -0.0586,-0.03039 l -0.0316,0.06913 -0.084,0.03546 -0.0338,-0.0064 -8.3e-4,-9.12e-4 -0.0175,-0.06208 -0.0367,0.05063 0.0429,0.0099 h 8.2e-4 l 0.0113,0.0024 0.0175,0.011 -0.19904,0.05616 -0.0457,-0.0051 c -0.0536,-0.0119 -0.10544,-0.02396 -0.1218,0.05509 l -0.0355,0.01077 0.003,-0.01472 -0.0101,0.01652 -0.15167,0.04624 -0.30393,0.09163 c -0.67719,0.168256 -1.32732,0.159235 -2.07274,0.07155 -0.20919,-0.01911 -0.41951,-0.05858 -0.63434,-0.111419 -0.0705,0.159911 -0.12123,0.356133 -0.0693,0.692475 -0.0344,-0.651539 -0.88187,0.0923 -0.1951,0.646689 0.95292,0.365831 0.38343,0.917567 1.00029,1.200173 0.0716,0.01985 0.14322,0.0269 0.22103,0.07533 0.50691,-0.195152 1.89907,-0.141191 3.04202,-1.085203 0.31294,-0.216522 0.75106,-0.216973 1.10459,-0.341867 0.2278,-0.122019 0.32479,-0.411448 0.46237,-0.560983 0.22385,-0.227742 0.50014,-0.344686 0.76346,-0.473979 -0.22836,0.201974 -0.44827,0.29315 -0.70933,0.499522 -0.16747,0.146039 0.37327,0.156809 0.54187,0.102848 0.0936,-0.0022 -0.0727,-0.295575 0.0197,-0.295575 0.0947,-0.100649 0.27065,-0.115196 0.43304,-0.176431 0.0914,-0.007 -0.13701,-0.190923 -0.0908,-0.194475 0.17987,-0.111419 0.57626,0.0013 0.60164,-0.151734 l 0.0592,-0.308375 0.0851,-0.14914 0.12518,-0.04889 c 0.30392,-0.119594 0.61799,-0.297999 0.87454,-0.497323 z m 0.99465,-0.361039 0.0507,-0.04934 -0.0147,0.03395 z m -0.10996,-0.05306 c 0.0282,0.03987 0.0637,0.07071 0.10883,0.05396 l 8.3e-4,-9.12e-4 -0.0818,0.07731 z m -0.0739,0.280575 0.10206,-0.150212 c -0.004,0.05661 -0.0372,0.107077 -0.10206,0.150212 z m 0.25656,-0.593122 c -0.0101,-0.05441 0.058,-0.04624 0.12517,-0.05109 l -0.0767,0.190301 z m -1.1311,-0.102622 c -0.0429,0.01297 0.21934,0.147561 0.12687,0.171976 -0.15224,0.09343 -0.33381,0.13854 -0.40767,0.259714 -0.0891,0.02092 0.1342,0.278827 0.0439,0.301326 -0.14661,0.09625 -0.68735,0.197519 -0.54525,0.01934 0.20919,-0.265634 0.39244,-0.414267 0.59825,-0.650862 0.23569,-0.153708 0.45052,-0.316043 0.66704,-0.502398 0.0451,-0.05989 0.0552,-0.131944 0.0682,-0.2022 l -0.006,0.314746 c 0.0107,0.159233 -0.39639,0.136566 -0.54525,0.288357 z m 1.67747,-1.394254 c -0.0435,0.02205 -0.13025,0.06518 -0.13025,0.06518 0.1421,0.216972 0.003,0.345814 -0.13081,0.467382 l -0.11052,-0.122019 c 0.0496,-0.08041 0.13025,-0.06169 0.16014,0.04009 -0.097,-0.243586 -0.0598,-0.416071 0.0338,-0.576206 0.0705,0.03637 0.15844,0.06343 0.17761,0.125571 z m -0.12123,-0.223569 0.005,0.0057 -0.0614,0.09225 -0.0231,-0.01229 0.0795,-0.08571" /><path
       inkscape:connector-curvature="0"
       id="path3056"
       style="fill:#000000;fill-opacity:1;fill-rule:nonzero;stroke:none;stroke-width:0.56385845"
       d="m 223.61082,65.514863 -8.3e-4,0.0225 -0.37214,0.147562 -0.0231,-0.06501 z m -8.61744,1.659887 c 0.24978,0.143164 0.43078,0.346209 0.62757,0.527265 -0.22667,-0.06783 -0.44263,-0.260334 -0.62757,-0.527265 z m 1.11869,0.948185 -0.10093,-0.122245 0.25768,0.183254 z m 0.0181,-0.427292 c -0.13477,0.06541 -0.2357,0.151734 -0.12349,0.3011 l 0.004,0.004 -0.39019,-0.298675 c 0.17874,0.03479 0.35128,0.02972 0.50916,-0.0064 z m 4.84636,-14.511856 c -0.53961,0.144461 -0.52495,0.640036 -0.4821,1.149312 0.35974,-0.160812 0.5492,-0.629322 0.4821,-1.149312 z m -6.08008,9.934904 c 0.008,-0.0989 0.0197,-0.196223 0.0333,-0.293601 l -0.278,-0.207726 c -0.25543,0.510575 -0.50522,1.203049 0.18212,1.610549 0.004,-0.0036 -0.14547,0.270709 -0.18832,0.412744 0.11446,0.09033 0.25317,0.07866 0.39413,0.05109 -0.11333,-0.423515 -0.16183,-0.832086 -0.15844,-1.228366 -0.0795,-0.164083 -0.17311,-0.337187 -0.29208,-0.526644 0.0981,0.178011 0.21708,0.230619 0.3073,0.181958 z m 7.65945,4.204693 c -0.128,0.01303 -0.27065,0.08306 -0.36876,0.212799 0.1793,0.03107 0.29151,-0.07691 0.36876,-0.212799 z m 0.51085,-0.895351 c 0.0586,0.006 0.0902,-0.0861 0.128,-0.158332 -0.15224,-0.0075 -0.31632,-0.01675 -0.31632,-0.01675 -0.0153,0.06214 -0.0383,0.113448 -0.0592,0.167805 0.0925,0.0095 0.18607,0.01303 0.24753,0.0073 z m 1.53877,-11.214581 c -0.83733,0.877477 -1.40739,2.082104 -2.10883,2.765331 -0.9969,0.999045 -2.53341,1.781455 -3.22019,1.970403 0.68283,-0.446012 1.94249,-1.077703 3.04145,-2.012693 0.78094,-0.666536 -1.22358,-0.22402 -1.82916,0.03236 -0.32365,0.03919 -0.11108,0.980607 -0.44376,1.025321 -0.5475,0.427517 -1.00423,0.384326 -1.49873,0.521963 -0.27234,0.0038 0.28531,0.553314 0.15393,0.549762 -0.2994,0.172259 -0.85649,0.137695 -1.24444,0.204004 -0.0119,0.09225 -0.0175,0.185679 -0.008,0.2777 0.13871,0.993407 -0.58979,1.864962 -0.69129,2.744638 0.19566,-0.106569 0.34565,-0.113223 0.32366,0.07003 -0.0806,0.62532 -0.13984,0.982581 0.0575,1.390701 0,0.05661 0.006,0.114576 0.0175,0.17271 0.30054,0.435242 0.68397,0.854584 1.15535,1.165157 0.2137,0.02024 0.41162,-0.04827 0.6022,-0.104201 -0.13194,0.06806 -0.27516,0.139893 -0.4274,0.2128 0.5289,0.303525 1.1576,0.466931 1.89738,0.368482 0.44826,-0.03722 0.90217,0.07245 1.33916,0.03631 0.16859,-0.02554 0.32874,-0.0949 0.47929,-0.169382 0.30955,-0.331888 0.63546,-0.587823 1.03636,-0.749932 0.0439,0.112094 0.10375,0.223738 0.13195,0.334311 0.0851,-0.0207 0.17085,-0.04511 0.25542,-0.06231 -0.088,0.03214 -0.17028,0.06124 -0.25091,0.0883 0.007,0.03592 0.0113,0.07116 0.009,0.1064 0.13194,-0.03524 0.27741,-0.03614 0.43248,-0.06168 0.0936,0.0038 -0.004,-0.165832 0.0423,-0.163633 0.24528,-0.08548 0.54356,0.03592 0.66479,-0.09275 l 0.26445,-0.252157 0.17649,-0.124444 0.14717,-0.03417 c 0.35804,-0.07928 0.74767,-0.223964 1.10686,-0.371357 l 0.006,0.01742 c -0.19398,0.10905 -0.36031,0.24556 -0.48436,0.475332 0.058,-0.09275 0.0186,-0.129969 -0.0818,-0.07624 l -0.0209,0.127546 c 0.19792,-0.05814 0.38963,-0.131944 0.46575,-0.352637 0,0 0.0947,-0.0119 0.1421,-0.01804 0.0361,-0.05774 -8.3e-4,-0.10595 -0.0209,-0.155964 l 0.11672,-0.06214 c -0.0186,0.131097 -0.18945,0.400452 -0.18945,0.400452 -0.46576,0.31937 -0.91628,0.604401 -1.35891,0.877928 -0.0541,-0.01319 -0.10036,-0.0379 -0.13532,0.0075 l -0.0739,0.120046 -0.19396,0.119143 -0.0773,0.02554 -0.002,-3.95e-4 c -0.0473,0.0011 -0.0502,-0.03152 -0.0417,-0.06941 l -0.0812,0.107076 -0.0401,0.01714 c 0.007,-0.0017 0.0147,-0.0037 0.0209,-0.0053 0.006,-0.0041 0.0135,-0.0075 0.0191,-0.01184 l 0.0964,-0.02887 0.003,-0.0012 v 2.26e-4 l 0.0254,-0.0075 0.0411,-0.0028 -0.45391,0.257007 -0.106,0.03259 c -0.12292,0.03 -0.24641,0.05994 -0.27855,0.179758 l -0.0812,0.04533 0.008,-0.02352 -0.0242,0.03146 -0.35861,0.169384 c -0.23682,0.104201 -0.46801,0.23479 -0.72682,0.316042 -1.58726,0.639867 -3.44405,0.77976 -5.13901,-0.237835 -0.8689,-0.543391 -1.63744,-1.31255 -2.06033,-2.31977 -0.009,-0.02425 -0.0129,-0.04821 -0.0209,-0.07268 -0.45052,-0.156809 -0.97604,-0.711871 -0.94277,-0.738316 -0.25204,-1.749033 0.28193,-3.392173 1.0967,-4.750507 0.19059,-0.02199 0.37892,0.008 0.38794,-0.180154 -0.0355,-0.177107 -0.0197,-0.320891 0.0163,-0.451988 l 0.42064,-0.559235 0.20581,-0.147787 0.007,-4.51e-4 c 0.12687,-0.03236 0.18833,0.04759 0.22498,0.157091 0.007,-0.01303 0.0175,-0.02537 0.026,-0.03834 0.009,-0.113222 0.0366,-0.219397 0.0958,-0.314971 0.084,-0.04561 0.16296,-0.0967 0.2402,-0.152185 -0.066,0.03653 -0.13645,0.07155 -0.20693,0.106569 -0.0113,0.01545 -0.0242,0.02977 -0.0333,0.04561 l -0.35354,0.196674 -0.1263,0.04009 c 0.32365,-0.431915 0.73583,-0.770456 1.10572,-1.167356 0.10319,-0.06343 0.20581,-0.134142 0.28926,-0.16476 0.34396,-0.143614 0.69637,-0.296645 0.62927,-0.728166 l 0.19171,-0.185905 0.004,0.08548 0.0298,-0.117621 0.76233,-0.829717 c 0.49225,-0.541812 0.94052,-1.132115 1.36454,-1.73956 1.31266,-1.968486 2.32479,-4.076302 2.41952,-6.072756 0.11841,-2.053234 -1.17847,-3.194821 -2.64563,-2.567078 -1.8049,0.783651 -3.46153,3.027864 -4.6507,5.146111 -0.97998,1.764482 -2.06034,3.402096 -3.07923,5.090119 l 0.0254,-0.0176 c 0,0 -3.12209,9.037354 -8.8069,9.675021 -1.02341,0.115196 -1.95377,0.171356 -2.80746,0.178405 0.0231,0.336116 -0.19002,0.617594 -0.37722,0.888246 l 0.0429,-0.153031 c 0.10206,-0.165887 0.13533,-0.176657 0.0615,-0.01545 0.13983,-0.231238 0.19283,-0.474205 0.23569,-0.719596 -2.27968,0.015 -3.97915,-0.334763 -5.26982,-0.946211 -0.15281,0.06744 -0.31238,0.121794 -0.47646,0.161489 -2.27573,0.678603 -1.43163,2.544186 -1.43163,2.544186 -6.51539,-5.773854 -7.01666,-9.816663 -6.60899,-11.893467 0.0902,-0.607895 0.29489,-1.143336 0.61968,-1.567808 0.0203,-0.02797 0.0332,-0.04404 0.0332,-0.04404 l 0.002,0.0033 c 0.15167,-0.190528 0.32365,-0.36211 0.52551,-0.502849 1.8083,-1.262987 4.94561,0.09952 7.07868,3.03976 2.51312,-0.955514 2.88527,1.008574 5.79083,0.294053 -2.20469,0.39425 1.39217,2.390873 2.22668,-0.006 0.24866,-1.655884 0.21482,-1.817767 1.07358,-2.819969 1.03976,-1.372601 2.65183,-3.22809 3.51002,-5.047379 0.44939,-0.954161 1.22695,-1.762734 1.99437,-2.788901 1.97012,-2.736235 3.70794,-5.713464 9.58785,-7.050429 3.22471,-0.615169 7.28731,1.551682 8.4731,4.709064 1.29631,3.087576 0.75218,5.620992 0.20693,7.777525 -0.76515,2.278777 -2.40373,3.528739 -3.6944,4.621892 z m 4.31352,7.802165 -0.008,-0.015 0.10995,-0.07685 8.3e-4,0.0064 z m 0.053,0.149311 c -0.0451,0.01697 -0.13532,0.04978 -0.13532,0.04956 -0.0276,0.240993 -0.22047,0.336342 -0.39978,0.437216 l -0.003,-0.131943 c 0.0902,-0.07094 0.13758,-0.04161 0.0947,0.06017 0.088,-0.244489 0.22667,-0.411447 0.39076,-0.56431 0.0299,0.04556 0.0773,0.0839 0.053,0.14931 z m -1.98252,1.858082 0.17987,-0.125289 c -0.0411,0.04911 -0.0981,0.09292 -0.17987,0.125289 z m 0.29772,-0.1819 8.3e-4,-6.77e-4 -0.11898,0.05729 0.0637,-0.117846 c -0.003,0.03896 0.006,0.07004 0.0541,0.06124 z m 0.0417,-0.009 -0.0406,0.0083 0.0733,-0.03744 z m -11.0381,2.799444 0.20355,-0.08125 c -0.0406,0.02532 -0.11897,0.05109 -0.20355,0.08125 z m 1.70117,0.853738 c -0.29265,-0.01212 -0.59544,-0.06343 -0.89429,-0.09913 0.16183,-0.02644 0.32478,-0.087 0.48492,-0.198252 0.1934,-0.06231 0.27179,0.142543 0.40937,0.297379 z m 9.72542,-3.998997 -0.18494,0.163632 0.0519,-0.132338 c 0.0276,-0.05114 0.0773,-0.03524 0.13307,-0.03129 z m -1.69158,0.469356 c -0.1934,0.06698 -0.74429,0.128616 -0.49845,-0.02667 0.37441,-0.222443 0.64055,-0.337639 0.9721,-0.549931 0.30505,-0.125121 0.60164,-0.248888 0.90105,-0.403779 l 0.19171,-0.185454 -0.21821,0.298225 c -0.10037,0.147618 -0.41218,0.0901 -0.64844,0.211447 -0.0468,0.0073 0.0801,0.156415 -0.0124,0.171582 -0.18945,0.07403 -0.3744,0.103299 -0.51875,0.211447 -0.0925,0.0115 -0.075,0.261461 -0.1686,0.273133 z m -26.77086,1.924167 c -0.11559,0.08373 -0.25205,0.126643 -0.37892,0.1894 l 0.18157,-0.112095 z m -0.88864,0.369835 0.11672,-0.07888 c -0.0209,0.01522 -0.0784,0.05661 -0.11672,0.07888 z m -0.19171,0.0874 c -0.0992,0.03902 -0.21709,0.07775 -0.35693,0.113448 z m 0.27629,-0.07488 -0.0626,0.01613 0.12969,-0.04692 z m 2.91289,0.463435 c -0.29941,0.342262 0.30618,-0.15946 0.43474,-0.446012 0.008,-0.02312 0.0147,-0.05176 0.0214,-0.08041 -0.0552,0.03857 -0.10939,0.06806 -0.16296,0.09935 -0.0716,0.139611 -0.16351,0.280801 -0.2932,0.427066 z m 0.50747,-1.023291 c -0.0197,-0.03479 -0.0383,-0.06941 -0.0361,-0.09602 l -0.002,0.01872 c -0.008,0.04229 -0.009,0.0852 -0.009,0.127714 0.0169,-0.01607 0.031,-0.03389 0.0473,-0.05041 z m -4.3434,0.965157 c 0.37779,0.06146 0.74373,0.193798 1.14632,0.127771 -0.17254,0.01494 -0.1528,0.03784 0.0445,0.04624 l 0.15281,-0.03789 c -0.34452,-0.0075 -0.67268,-0.08351 -0.99747,-0.100028 0,0 -0.14096,-0.04646 -0.21032,-0.06913 -0.10826,-0.0099 -0.10938,0.01629 -0.13588,0.03304 l -0.22216,-0.05002 c 0.16972,-0.0079 0.66929,0.03682 0.66929,0.03682 0.93826,0.187201 1.87765,0.134988 2.69581,-0.179758 0.0688,-0.0092 0.12123,-0.0097 0.20186,-0.05063 l 0.17818,-0.105724 0.32479,-0.201974 0.11897,-0.06547 0.003,-6.2e-4 c 0.066,-0.03085 0.0564,-0.01037 0.0254,0.02334 l 0.14773,-0.148463 c 0.0322,-0.02729 0.066,-0.05373 0.10037,-0.08041 -0.022,0.01849 -0.0463,0.03659 -0.0705,0.05419 -0.0101,0.0086 -0.022,0.01742 -0.0299,0.02622 l -0.0507,0.03631 -0.088,0.06941 c 0.0129,-0.01144 0.0265,-0.02312 0.0395,-0.03456 l -0.0773,0.05458 -0.058,0.02712 c 0.13194,-0.09253 0.25543,-0.196674 0.37102,-0.307247 8.3e-4,-0.05464 8.3e-4,-0.10905 0.0147,-0.161883 l 0.0107,-0.09586 v -0.0052 c 0.0496,0.01872 0.10883,0.04026 0.009,0.02092 l -0.007,0.07353 c 0.006,-0.03259 0.0485,-0.05063 0.16633,-0.04032 0.008,-0.0099 0.0186,-0.01827 0.0265,-0.02797 -0.0947,-0.02177 -0.15788,-0.03502 -0.19284,-0.04161 l 8.3e-4,-0.0035 c 0.0716,0.01652 0.1342,0.03101 0.19171,0.04449 0.0129,-0.01545 0.0293,-0.02887 0.0417,-0.04449 0.0332,-0.09693 0.24358,-0.0077 0.14322,0.05109 -8.3e-4,0.01212 -0.002,0.02402 -0.003,0.03609 0,0.0065 -8.3e-4,0.01212 -8.3e-4,0.01833 0.0473,0.0095 0.1015,0.02159 0.1607,0.03569 -0.0592,0.0667 -0.11672,0.126642 -0.17479,0.183874 -0.003,0.115196 -0.007,0.219397 -0.022,0.296251 l -0.0485,0.156415 0.003,-0.0322 -0.0124,0.05971 c -0.0485,0.229039 -0.20468,0.409474 -0.31632,0.609023 -0.2419,0.319144 -0.54582,0.588048 -0.88075,0.822838 0.10149,-0.0861 0.21257,-0.21607 0.24753,-0.247984 -0.0857,0.02205 -0.33888,0.281929 -0.42064,0.305272 0.0242,0.04584 0.0885,0.0119 0.16014,-0.04646 -0.0378,0.02532 -0.0688,0.05594 -0.10488,0.08041 0.88526,-0.26101 2.53511,-0.852836 3.29293,-1.956814 0.1951,-0.210319 0.36087,-0.44776 0.51988,-0.688471 -0.0101,-0.05881 -0.0186,-0.117846 -0.0322,-0.176657 l -0.0107,-0.06654 c 0.3214,0.02864 -0.46913,-0.04358 0.19002,0.01585 l 0.0806,-0.134987 c 0.14547,-0.0013 -0.24133,-0.152862 0.34113,-0.03107 l 0.0288,0.137864 c 0.003,0.02334 0.009,0.04652 0.0147,0.07026 0.0717,0.0065 0.14323,0.01303 0.22781,0.0203 l -8.3e-4,0.0027 -0.003,0.0055 -0.006,0.01015 -0.0119,0.02092 -0.022,0.04161 -0.0925,0.154666 -0.0322,0.04911 c 0.009,0.06056 0.0147,0.121343 0.0101,0.1841 0.0265,0.333466 -0.0401,0.673134 -0.16183,0.994252 0.48324,-0.394025 0.89091,-0.887175 1.25403,-1.38805 0.21257,-0.105949 0.20919,-0.327772 0.29208,-0.503526 -0.0429,-0.0011 -0.0632,-0.0015 0,-4.51e-4 0.0801,-0.170004 0.2402,-0.296251 0.75782,-0.22904 0.0372,0.08306 0.0615,0.165605 0.0857,0.247986 0.0265,4.51e-4 0.0473,0.0012 0.075,0.0016 l -0.006,0.0097 -0.0113,0.01872 -0.0231,0.03766 -0.007,0.01365 c 0.0801,0.313844 0.0834,0.62047 0.088,0.919991 -8.3e-4,0.142093 -0.0129,0.278829 -0.0231,0.416974 0.12799,-0.05002 0.2464,-0.104652 0.26783,-0.222274 0.53961,-0.473077 1.06118,-0.962055 1.49535,-1.526364 0.89316,-1.104373 1.56245,-2.401699 1.92727,-3.850984 0.33042,-1.094449 0.68283,-3.202547 0.64505,-4.31019 0.084,-1.464284 0.44601,-0.748241 0.48605,-0.668059 0.3073,0.900876 0.22216,1.640264 0.0507,3.426736 0.0648,-0.816918 -0.34396,1.22222 -0.62025,2.379709 -0.32478,1.857631 -2.03609,4.064573 -3.8489,5.442756 l -0.34282,0.273132 -0.17705,0.137413 -0.0113,0.0088 -0.005,0.0045 -0.003,0.002 v 2.25e-4 c 0.65069,0.441389 -0.88751,-0.600453 -0.72907,-0.493376 v -0.002 l 0.004,-0.02267 0.01,-0.04692 0.0175,-0.101551 c 0.0401,-0.243136 0.0761,-0.505048 0.0874,-0.771527 l -0.006,0.0083 c -0.54187,0.682157 -1.12772,1.356587 -2.02652,1.806321 l -0.0812,0.04319 -0.0411,0.02159 -0.005,0.0024 -0.002,0.0013 c 0.45222,0.76651 -0.61911,-1.042236 -0.50916,-0.856106 l 0.006,-0.0051 0.066,-0.06654 0.13702,-0.184551 c 0.008,-0.01325 0.0141,-0.02819 0.022,-0.04189 -0.22498,0.243193 -0.46293,0.477757 -0.72625,0.697155 -0.82661,0.601749 -1.71751,0.9938 -2.5977,0.985624 l -0.23682,0.02932 -0.1201,0.01585 -0.0592,0.0086 -0.0298,0.0041 -0.008,0.0012 -8.3e-4,2.25e-4 c -0.0755,-0.296477 0.17085,0.663211 -0.17141,-0.664958 h 8.3e-4 l 8.3e-4,-6.76e-4 0.002,-0.0015 0.01,-0.0056 0.3197,-0.224868 c 0.20581,-0.163236 0.38513,-0.339442 0.51312,-0.499973 0.12631,-0.138766 0.22216,-0.283057 0.29828,-0.428194 -0.32703,0.182352 -0.62532,0.258811 -0.85594,0.353089 -0.21427,0.100648 -0.41049,0.186975 -0.61404,0.220468 l -0.39245,0.07375 -0.26219,0.02402 c -0.63716,-0.03367 -1.34762,-0.112546 -1.98083,-0.318016 z m 0.85819,-0.388329 0.002,-8.29e-4 -0.2137,0.05876 0.19171,-0.0874 c -0.0389,0.02554 -0.0541,0.04381 0.0197,0.02949 z m -1.12771,-0.04556 0.46123,-0.10595 c 0.52777,-0.132168 1.04088,-0.277756 1.53539,-0.539669 l 0.37891,-0.243361 -0.49901,0.352186 c -0.2481,0.151735 -0.6101,0.210376 -1.03863,0.338315 -0.0682,0.01303 -0.0276,0.08548 -0.16747,0.11232 -0.26726,0.272683 -0.73132,-0.302847 -0.78488,0.586583 0.14321,0.04668 0.393,0.0037 0.53171,0.04973 0.32704,0.120497 1.21342,0.316551 0.68396,0.262983 -0.39075,-0.08148 -0.71159,-0.153481 -1.02227,-0.223513 l -0.23118,-0.05266 c -0.0519,-1.01207 0.10713,-0.300424 0.15224,-0.536962 z m 5.12096,-0.517623 -0.18607,0.193404 0.19453,-0.216522 0.0299,-0.04009 c 0.003,0.0011 0.004,0.0015 0.009,0.0027 z m 0.0451,-0.0729 0.008,-0.0119 c 0.11277,0.02949 0.0473,0.01985 -0.008,0.0119 z m 0.008,-0.0119 c -0.0439,-0.01144 -0.11334,-0.02887 -0.22329,-0.05532 0.066,0.01567 0.13871,0.03287 0.22441,0.05379 z m -0.008,0.0119 -0.007,0.0097 c -0.0727,-0.01962 -0.0372,-0.01567 0.007,-0.0097 z m -0.58923,-0.150889 -0.002,0.01545 c -0.0395,-0.01567 -0.0716,-0.02887 0.002,-0.01545" /></g></svg>